<?xml version="1.0" standalone="no"?>
<!DOCTYPE svg PUBLIC "-//W3C//DTD SVG 20010904//EN"
 "http://www.w3.org/TR/2001/REC-SVG-20010904/DTD/svg10.dtd">
<svg version="1.0" xmlns="http://www.w3.org/2000/svg"
 width="960.000000pt" height="960.000000pt" viewBox="0 0 960.000000 960.000000"
 preserveAspectRatio="xMidYMid meet">
<metadata>
Created by potrace 1.11, written by Peter Selinger 2001-2013
</metadata>
<g transform="translate(0.000000,960.000000) scale(0.100000,-0.100000)"
fill="#000000" stroke="none">
<path d="M3126 7221 c-3 -5 0 -12 6 -14 7 -3 -105 -6 -249 -6 -159 -1 -263 -5
-265 -11 -2 -6 -8 -6 -18 0 -13 9 -13 11 0 20 9 6 10 10 3 10 -13 0 -43 -27
-43 -40 0 -5 8 -13 17 -19 17 -9 17 -11 -1 -30 -10 -11 -24 -17 -32 -14 -9 3
-12 0 -9 -9 3 -7 -2 -22 -10 -33 -16 -19 -16 -19 -11 5 3 14 3 19 0 13 -3 -7
-9 -13 -14 -13 -5 0 -10 6 -13 13 -2 6 -2 2 0 -10 2 -17 -2 -23 -14 -23 -17
-1 -17 -1 0 -11 9 -5 17 -15 17 -20 0 -6 -4 -7 -10 -4 -5 3 -10 -1 -10 -9 0
-8 -5 -18 -12 -22 -8 -5 -9 0 -6 14 4 12 2 22 -4 22 -6 0 -8 -13 -6 -30 5 -36
-9 -52 -16 -18 -12 55 -15 60 -12 21 2 -24 0 -43 -5 -43 -4 0 -6 -6 -3 -13 3
-8 -4 -25 -15 -38 -13 -15 -20 -19 -21 -10 0 11 -5 9 -22 -5 -21 -19 -21 -19
-14 1 4 11 3 16 -1 11 -4 -4 -8 -24 -9 -44 0 -23 -5 -36 -12 -35 -7 2 -11 0
-11 -5 4 -21 -2 -24 -14 -7 -14 18 -38 13 -36 -8 0 -9 2 -9 6 1 7 18 20 15 25
-6 6 -21 -13 -52 -31 -52 -7 0 -10 -4 -7 -9 3 -4 -3 -16 -13 -25 -15 -13 -20
-14 -23 -4 -3 7 -11 1 -19 -17 -9 -17 -21 -29 -27 -28 -7 2 -11 -1 -9 -6 1 -4
-9 -18 -23 -30 -17 -15 -21 -24 -12 -27 21 -9 13 -21 -12 -19 -25 3 -45 -23
-27 -34 5 -3 1 -16 -9 -29 -12 -14 -21 -18 -25 -11 -9 13 -38 -26 -32 -44 6
-20 -23 -40 -59 -39 -37 1 -43 -8 -19 -28 8 -7 15 -17 15 -22 0 -6 -7 -8 -15
-4 -8 3 -15 0 -15 -6 0 -6 -12 -22 -26 -35 -20 -18 -30 -21 -38 -13 -8 8 -7
14 4 21 13 9 13 10 0 6 -10 -2 -15 -17 -15 -43 -1 -30 -5 -39 -17 -38 -10 1
-14 -4 -11 -12 6 -17 -13 -19 -21 -1 -3 6 -3 0 0 -14 4 -17 0 -30 -12 -40 -15
-13 -16 -12 -9 11 4 14 4 21 -1 17 -5 -4 -9 -23 -9 -41 -1 -35 -21 -69 -44
-74 -18 -4 -41 -33 -37 -47 5 -19 -26 -42 -53 -39 -21 2 -28 -1 -28 -14 0 -9
3 -22 8 -27 11 -15 -13 -41 -38 -39 -14 1 -20 -3 -16 -12 7 -20 -7 -17 -24 4
-13 15 -13 15 -3 -5 13 -28 -13 -75 -39 -71 -10 2 -15 -4 -15 -15 1 -10 -3
-16 -10 -14 -6 2 -10 12 -10 21 1 10 -1 14 -5 11 -3 -4 -6 -23 -6 -43 -1 -31
-4 -37 -20 -34 -18 2 -17 1 3 -11 24 -14 21 -30 -4 -20 -10 4 -12 0 -8 -11 5
-12 2 -15 -10 -10 -9 3 -16 1 -16 -5 0 -18 -20 -12 -21 7 0 10 -3 12 -6 5 -2
-7 -11 -13 -19 -13 -8 0 -14 -7 -14 -15 0 -8 -4 -15 -10 -15 -5 0 -10 -4 -10
-9 0 -6 12 -9 26 -8 15 1 29 -3 31 -9 2 -7 -5 -10 -22 -7 -20 4 -25 1 -25 -15
0 -12 -4 -24 -10 -27 -6 -4 -10 7 -10 24 0 17 -3 31 -8 31 -14 0 -7 -65 8 -77
13 -11 13 -12 -3 -13 -10 0 -16 -4 -13 -9 3 -5 -3 -20 -14 -32 -12 -16 -19
-19 -20 -10 0 11 -5 9 -22 -5 -21 -19 -21 -19 -14 1 4 11 4 16 -1 12 -4 -5 -8
-24 -10 -43 -2 -38 -60 -127 -76 -117 -6 3 -7 1 -4 -4 4 -6 -2 -18 -13 -28
-11 -10 -20 -13 -20 -7 0 6 5 14 10 17 6 3 10 11 10 17 0 6 -15 -10 -33 -35
-19 -26 -37 -45 -40 -42 -4 3 -3 -1 3 -7 11 -13 14 -35 3 -25 -3 4 -12 -1 -20
-11 -14 -16 -14 -16 -9 1 3 11 2 16 -4 12 -6 -3 -7 -17 -4 -31 5 -19 3 -23
-10 -18 -11 4 -16 19 -16 47 0 58 -8 42 -15 -31 -6 -68 -21 -103 -41 -95 -7 2
-15 -5 -19 -16 -4 -13 -11 -19 -18 -15 -9 5 -9 4 0 -6 16 -17 -9 -42 -44 -42
-18 0 -21 -3 -12 -9 12 -8 12 -11 -1 -18 -8 -6 -11 -13 -8 -17 9 -8 -10 -46
-20 -40 -5 3 -14 1 -22 -4 -9 -5 -19 -5 -27 1 -17 15 -35 1 -28 -20 4 -12 0
-17 -12 -17 -27 1 -27 -18 -1 -26 13 -3 17 -6 11 -7 -7 -1 -13 -6 -13 -12 0
-5 5 -7 10 -4 5 3 10 2 10 -3 0 -6 -7 -12 -15 -16 -8 -3 -15 -12 -15 -20 0 -8
-5 -16 -10 -18 -6 -1 169 -2 387 -1 391 3 398 3 421 24 12 12 21 29 20 38 -2
12 5 16 32 14 19 -1 29 1 23 5 -14 10 34 85 51 79 7 -3 19 -1 27 4 12 8 12 10
-1 8 -28 -3 -43 1 -36 9 4 4 11 7 16 7 13 0 90 92 90 107 0 8 7 15 15 15 11 0
14 -7 10 -21 -5 -16 -4 -17 3 -6 6 8 9 26 8 40 0 14 6 33 14 43 14 16 15 16
22 0 5 -15 7 -14 7 5 1 12 5 22 10 22 5 0 12 -10 14 -22 l4 -23 2 23 c0 12 5
22 11 22 6 0 6 9 1 23 -10 26 22 77 35 56 4 -7 -1 -18 -11 -26 -11 -7 -14 -13
-8 -13 18 0 36 28 36 57 0 26 0 26 14 7 13 -18 14 -17 9 8 -3 18 2 35 14 50
11 13 19 18 20 12 0 -6 10 -11 22 -10 18 1 22 8 25 40 2 39 33 89 33 56 1 -11
4 -10 11 4 9 15 13 16 21 5 8 -11 9 -11 5 1 -2 8 -10 14 -16 12 -6 -1 -11 2
-11 8 0 5 6 10 14 10 7 0 19 6 26 14 7 9 23 13 41 11 16 -2 32 1 35 7 4 7 2 8
-4 4 -7 -4 -12 -5 -12 -2 0 2 -3 12 -7 22 -5 13 -3 15 8 9 12 -7 12 -6 -1 9
-12 16 -12 20 1 30 9 6 18 18 22 26 4 11 6 10 6 -5 1 -18 3 -17 18 5 24 35 40
50 46 44 3 -3 4 6 3 20 -2 16 5 32 17 43 19 17 20 17 14 1 -4 -10 -2 -18 3
-18 6 0 10 9 10 20 0 22 16 27 23 8 2 -7 2 -2 0 10 -3 17 0 22 9 16 10 -6 10
-4 0 9 -12 13 -10 18 7 29 12 7 21 19 21 26 0 7 4 11 9 7 13 -7 51 34 51 56 0
9 7 22 15 29 12 10 15 10 15 -1 0 -8 5 -5 14 6 8 11 12 26 9 35 -3 10 1 8 13
-5 15 -19 16 -19 10 -1 -4 11 0 29 10 43 15 24 16 24 31 6 8 -10 12 -12 8 -5
-3 6 -3 17 1 24 5 8 10 6 16 -8 8 -18 8 -18 5 1 -2 11 -9 19 -15 18 -15 -4
-15 7 1 28 12 16 18 19 38 19 5 0 7 5 4 10 -3 6 11 31 32 56 20 26 39 41 41
34 3 -7 13 -3 28 11 13 12 24 18 24 12 0 -6 -7 -16 -15 -23 -21 -18 -19 -27 7
-26 12 0 23 8 25 16 4 13 3 13 -6 0 -5 -8 -13 -12 -16 -8 -3 3 1 13 10 21 14
15 14 17 -5 29 -27 17 -26 32 1 17 20 -10 21 -9 17 15 -4 17 1 34 15 49 l20
22 -6 -22 c-3 -13 -1 -23 4 -23 5 0 9 7 9 15 0 9 9 26 20 38 11 12 18 27 16
34 -7 16 21 44 37 37 7 -2 24 14 38 35 l26 40 23 -31 c17 -23 24 -27 31 -17 5
8 9 10 10 4 1 -5 3 -14 4 -20 2 -5 3 -17 4 -25 1 -12 3 -12 10 -2 7 11 9 11
14 -1 3 -9 -1 -18 -9 -21 -8 -3 -14 -13 -14 -23 0 -15 2 -16 10 -3 7 12 12 11
32 -5 18 -16 20 -16 9 -2 -18 23 -8 33 10 11 8 -10 14 -36 14 -58 0 -35 3 -41
22 -42 15 -1 20 3 16 15 -3 9 6 3 21 -13 14 -16 23 -33 20 -38 -3 -5 3 -19 13
-31 11 -12 23 -30 27 -41 3 -11 12 -16 21 -12 17 6 30 -10 15 -19 -7 -5 -5
-12 7 -20 10 -7 21 -11 25 -9 5 3 8 -5 8 -18 0 -18 2 -20 10 -8 8 12 10 9 10
-12 0 -29 -14 -38 -23 -15 -4 9 -6 9 -6 0 -1 -18 17 -25 37 -14 13 7 22 7 30
-1 15 -15 16 -32 2 -23 -16 10 -12 -5 11 -36 11 -16 28 -28 37 -27 10 2 17 -3
16 -9 -1 -7 -2 -29 -2 -49 -1 -20 -6 -33 -12 -29 -5 3 -10 1 -10 -6 0 -10 -3
-10 -12 -1 -16 16 -29 15 -23 0 3 -7 -4 -28 -15 -46 -15 -25 -26 -32 -38 -27
-14 5 -15 4 -4 -6 15 -16 16 -33 0 -23 -8 5 -9 2 -5 -10 5 -12 3 -16 -5 -13
-7 2 -13 14 -12 26 0 15 -3 18 -10 11 -6 -6 -11 -23 -12 -38 -1 -18 -6 -27
-17 -26 -9 1 -13 -4 -10 -12 7 -19 -7 -17 -22 3 -20 27 -32 7 -30 -52 1 -47
-2 -55 -17 -55 -10 0 -18 7 -18 15 0 8 -4 15 -10 15 -5 0 -7 -14 -3 -32 l6
-33 -20 24 -20 24 1 -58 c1 -56 -14 -92 -34 -80 -5 3 -10 -1 -13 -7 -3 -10 -8
-10 -23 2 -15 11 -16 11 -6 0 6 -8 12 -18 12 -23 0 -4 -6 -5 -12 -1 -8 5 -7 1
2 -10 13 -16 12 -20 -4 -31 -10 -8 -23 -12 -29 -11 -7 2 -9 1 -4 -1 14 -9 7
-25 -9 -19 -12 4 -14 1 -9 -14 6 -19 -8 -29 -18 -12 -2 4 -2 1 0 -6 1 -8 -4
-23 -12 -35 -13 -18 -15 -19 -15 -4 0 13 -7 16 -30 14 -17 -2 -33 -7 -38 -12
-4 -5 -2 -5 4 -2 8 4 10 -8 8 -41 -3 -61 -3 -60 -15 -39 -5 9 -15 17 -22 17
-8 0 -7 -3 2 -9 11 -7 8 -14 -15 -34 -21 -18 -31 -22 -37 -14 -6 8 -7 7 -4 -3
2 -9 14 -14 27 -12 19 2 21 0 10 -13 -7 -8 -17 -12 -22 -8 -6 3 -9 0 -6 -8 7
-20 -31 -59 -51 -51 -14 5 -14 4 -1 -13 13 -16 13 -18 0 -13 -17 5 -44 -17
-36 -31 9 -14 -31 -58 -58 -65 -17 -4 -23 -11 -20 -21 4 -9 -1 -18 -11 -21
-13 -6 -14 -9 -3 -16 9 -7 7 -8 -9 -5 -13 3 -23 1 -23 -4 0 -5 5 -9 12 -9 6 0
8 -3 4 -7 -4 -5 -13 -8 -19 -8 -21 0 -17 -21 5 -22 13 -1 196 -2 407 -2 317
-1 386 1 395 13 6 7 18 16 26 20 8 3 2 4 -13 1 -28 -6 -28 -5 -12 19 11 16 23
23 36 21 16 -3 19 0 14 15 -3 10 -1 21 5 25 5 3 10 1 10 -6 0 -8 4 -8 15 1 9
7 13 21 10 31 -5 15 -1 17 27 14 25 -4 29 -2 18 6 -11 8 -12 12 -3 15 7 3 9
12 6 21 -5 12 -1 14 18 8 20 -6 22 -5 12 6 -13 13 -19 38 -6 26 10 -10 33 13
33 33 0 10 7 23 15 30 12 10 15 10 15 -3 0 -8 -6 -18 -12 -20 -8 -3 -6 -6 5
-6 9 -1 17 6 17 14 0 9 9 26 20 38 11 12 18 27 16 34 -8 19 21 42 48 39 28 -3
36 9 32 48 -4 33 18 53 39 36 13 -11 14 -10 9 4 -8 21 5 21 22 -1 7 -10 14
-13 14 -6 0 6 -4 15 -10 18 -5 3 -10 11 -10 16 0 6 4 8 9 5 4 -3 7 5 6 19 -2
13 5 31 16 41 19 17 27 6 9 -12 -7 -7 -1 -10 17 -9 15 0 28 7 30 15 4 13 3 13
-6 0 -5 -8 -13 -11 -17 -7 -4 3 -1 13 6 22 9 11 9 15 1 15 -7 0 -9 5 -6 10 5
8 11 8 20 0 10 -8 13 -6 11 7 0 11 5 17 13 15 11 -2 12 0 3 11 -14 17 -6 28
15 20 9 -4 16 2 20 16 6 23 19 28 27 9 2 -7 4 -2 3 11 -1 14 6 28 18 35 11 6
22 12 25 14 2 2 -1 6 -7 10 -17 11 -1 31 27 35 19 3 24 9 22 26 -4 27 14 52
32 45 15 -6 30 22 20 37 -3 5 2 9 11 9 9 0 14 4 11 9 -3 4 3 19 14 31 13 15
20 18 20 9 0 -11 2 -11 11 1 8 11 12 12 16 3 8 -21 20 -15 20 10 1 62 2 65 28
63 13 -2 24 0 23 3 -2 20 4 22 16 5 14 -18 14 -17 11 11 -4 39 12 68 33 61 13
-5 12 -2 -2 9 -18 13 -15 20 7 16 4 0 7 3 7 9 0 5 5 10 11 10 6 0 9 -8 7 -18
-3 -10 0 -19 6 -19 6 0 11 19 11 46 1 30 5 45 13 44 6 -2 23 13 38 32 15 20
31 32 38 28 6 -4 5 1 -2 10 -12 14 -11 19 7 38 12 13 21 27 21 31 0 5 9 4 19
-2 27 -14 28 -14 28 20 0 17 7 39 17 48 15 15 18 15 26 2 5 -8 10 -10 10 -4 0
5 -5 15 -12 22 -7 7 -8 12 -2 12 6 0 15 -5 21 -11 8 -8 13 -7 18 2 5 8 4 10
-3 5 -7 -4 -12 -3 -12 3 0 5 5 13 10 16 6 4 8 10 5 14 -7 12 26 45 49 49 11 2
15 -1 11 -7 -3 -6 -1 -11 4 -11 6 0 12 3 12 8 1 4 3 22 5 41 4 34 22 66 32 56
3 -3 11 0 19 6 10 9 13 8 13 -4 0 -8 -6 -17 -12 -20 -7 -3 -3 -4 8 -4 12 1 20
6 19 12 -11 35 -16 69 -9 63 4 -4 12 -4 18 2 15 12 70 -55 60 -73 -4 -6 -4 -9
1 -5 11 11 38 -21 41 -48 2 -14 -2 -22 -7 -19 -5 4 -9 2 -9 -4 0 -6 14 -9 30
-7 34 4 49 -13 45 -51 -1 -12 1 -22 4 -21 3 0 9 -1 14 -2 4 -1 10 -3 15 -4 19
-3 82 -86 82 -107 0 -19 2 -21 10 -9 8 12 10 9 10 -12 0 -16 5 -29 10 -29 6
-1 14 -2 19 -3 15 -2 101 -125 92 -131 -5 -3 -11 1 -14 7 -2 7 -4 1 -3 -13 0
-14 6 -26 13 -26 7 0 10 4 7 9 -13 21 20 5 47 -23 23 -24 28 -34 19 -44 -17
-20 -2 -39 17 -23 12 10 17 9 24 -4 5 -10 16 -24 25 -32 8 -9 13 -20 10 -24
-3 -5 1 -18 9 -28 11 -15 14 -16 15 -4 0 9 8 3 19 -14 11 -17 18 -33 15 -38
-3 -4 1 -8 10 -8 10 0 13 -9 11 -27 -1 -15 1 -37 6 -48 7 -18 8 -18 8 -1 1 15
4 16 16 6 12 -10 15 -10 15 1 0 7 8 2 17 -11 9 -14 24 -30 32 -37 14 -10 13
-14 -4 -34 -11 -13 -13 -18 -5 -13 8 5 20 9 25 9 12 0 49 -44 50 -60 2 -23 24
-61 49 -85 24 -21 26 -22 20 -5 -6 16 -4 18 6 8 15 -14 24 -66 9 -58 -5 3 -6
-1 -2 -10 4 -12 8 -13 13 -4 6 8 11 6 19 -8 5 -11 8 -23 5 -25 -2 -3 7 -4 21
-3 33 4 50 -25 30 -51 -8 -11 -15 -22 -15 -25 0 -9 34 -7 48 4 8 6 12 6 12 -2
0 -7 5 -9 10 -6 6 3 10 1 10 -6 0 -6 8 -17 17 -24 15 -11 15 -15 3 -30 -8 -10
-15 -33 -16 -53 -1 -31 1 -33 12 -17 7 10 11 22 8 27 -3 5 0 15 6 23 10 13 17
9 41 -21 16 -20 26 -41 22 -47 -9 -15 -12 -87 -3 -92 4 -2 6 14 5 35 -2 33 0
38 11 29 8 -7 13 -23 12 -37 -2 -15 3 -27 12 -29 13 -4 13 -3 0 6 -8 5 -11 13
-7 17 4 4 18 -3 32 -16 14 -13 25 -20 25 -16 0 5 6 3 14 -4 8 -6 12 -19 9 -27
-4 -11 -2 -14 5 -9 16 10 15 -7 0 -23 -11 -10 -10 -11 3 -6 22 8 57 -44 38
-56 -11 -7 -10 -9 3 -9 9 0 19 6 22 13 3 8 8 7 16 -5 10 -17 39 -18 365 -18
302 0 355 2 355 14 0 8 -4 18 -10 21 -5 3 -10 11 -10 17 0 7 5 7 14 -1 10 -9
15 -8 19 2 4 10 -2 13 -19 11 -31 -3 -56 22 -49 50 2 11 2 15 -1 9 -8 -18 -26
-16 -22 1 2 8 0 14 -4 13 -13 -3 -39 43 -32 55 5 8 2 9 -10 5 -14 -6 -17 -3
-12 8 3 9 2 14 -3 11 -5 -3 -15 2 -22 11 -12 14 -12 16 1 11 10 -4 16 0 16 11
1 9 4 25 8 36 6 16 6 17 -3 5 -6 -8 -11 -10 -11 -4 0 17 -30 26 -45 14 -13
-11 -41 11 -29 23 4 4 -1 18 -11 33 -11 17 -20 23 -24 15 -5 -7 -12 -3 -21 14
-7 14 -17 25 -21 25 -5 0 -6 19 -4 43 4 33 0 47 -16 67 l-21 25 17 -28 c10
-18 14 -38 10 -54 -6 -25 -6 -25 -36 13 -17 22 -28 46 -26 56 3 11 1 15 -5 12
-7 -5 -9 3 -5 22 l6 29 -13 -29 c-8 -18 -16 -24 -20 -17 -4 6 -4 16 -1 21 4 6
1 17 -5 25 -6 8 -9 19 -5 26 6 8 2 8 -13 0 -19 -10 -26 -5 -66 53 -26 35 -46
70 -46 77 0 12 2 12 9 0 7 -10 9 -7 8 12 -1 14 -5 23 -9 20 -5 -2 -8 2 -8 9 0
10 -2 10 -9 0 -10 -17 -17 -16 -39 6 -19 18 -24 87 -7 86 6 0 21 10 35 23 28
26 41 22 17 -5 -15 -16 -15 -18 2 -18 14 0 17 8 16 43 -1 23 2 48 6 55 6 9 9
8 9 -7 0 -15 6 -11 26 18 33 49 44 41 13 -10 -21 -36 -21 -37 -2 -20 16 14 22
15 26 5 2 -7 4 -2 4 12 0 72 25 134 56 136 9 1 17 -2 17 -8 0 -5 4 -7 10 -3 5
3 6 15 1 28 -10 26 22 77 35 56 4 -7 -1 -19 -12 -27 -18 -14 -18 -14 -1 -8 10
3 21 6 23 6 2 0 4 7 4 16 0 8 5 25 12 37 7 12 13 28 14 34 3 18 34 47 34 33 0
-7 9 -2 20 11 10 13 19 19 20 13 0 -5 -6 -16 -12 -23 -11 -11 -10 -13 2 -9 9
3 16 19 17 42 1 21 8 44 14 52 10 12 14 12 26 -3 8 -10 12 -12 8 -5 -3 6 -3
17 1 24 5 8 10 6 16 -8 5 -12 6 -6 3 19 -3 22 -1 36 4 32 5 -3 13 0 16 6 4 5
13 8 19 6 7 -3 19 -1 26 3 11 7 10 12 -5 26 -17 17 -16 19 7 39 14 12 28 28
31 36 3 8 6 9 6 3 1 -7 14 -10 31 -8 30 4 42 -10 18 -19 -10 -4 -10 -6 -1 -6
19 -1 24 15 13 44 -7 20 -6 32 6 50 9 13 15 26 15 29 0 3 2 13 5 21 5 12 9 13
20 4 11 -9 14 -8 14 7 0 16 2 15 21 -4 11 -12 17 -27 14 -32 -4 -6 -3 -10 2
-9 22 4 25 -2 7 -15 -24 -18 -13 -31 14 -17 16 8 21 6 32 -14 7 -14 17 -25 22
-25 5 0 6 -11 2 -25 -4 -15 -2 -25 5 -25 6 0 8 8 5 18 -3 9 8 1 25 -18 20 -23
28 -41 25 -54 -4 -13 -2 -16 6 -11 17 11 45 -26 45 -58 -1 -17 3 -26 11 -23
17 6 56 -23 48 -36 -4 -6 -8 -22 -10 -35 -2 -19 0 -22 11 -13 7 6 19 9 26 8
16 -4 45 -39 41 -51 -1 -5 1 -6 6 -3 9 5 42 -28 42 -43 0 -5 6 -14 14 -21 8
-6 13 -17 10 -24 -3 -7 2 -19 11 -26 15 -12 22 -35 8 -27 -5 3 -9 -6 -10 -20
0 -16 2 -21 7 -14 5 9 9 8 14 -4 4 -11 12 -14 25 -10 16 5 26 -3 47 -36 20
-32 28 -39 35 -28 7 12 9 12 9 0 0 -7 12 -24 27 -37 26 -22 26 -24 10 -42 -9
-10 -17 -23 -17 -28 0 -5 5 -2 10 6 14 23 32 18 63 -16 30 -36 34 -46 12 -38
-8 4 -15 1 -15 -4 0 -6 9 -9 20 -7 11 2 22 0 25 -6 4 -5 1 -9 -6 -9 -8 0 -9
-3 0 -14 6 -7 10 -24 9 -37 -3 -19 1 -24 19 -22 16 2 30 -8 47 -34 14 -20 23
-40 21 -44 -3 -4 3 -6 12 -5 10 0 23 -11 31 -27 8 -17 19 -26 27 -23 8 3 17
-3 20 -14 3 -10 12 -21 20 -24 9 -3 13 -16 10 -36 -2 -18 0 -28 6 -24 6 3 8
-4 6 -18 -2 -12 -2 -17 0 -10 3 6 9 12 14 12 5 0 9 -6 9 -12 0 -10 2 -10 8 -1
10 16 84 -70 77 -89 -7 -17 15 -48 36 -51 9 -2 31 -20 50 -42 27 -30 34 -47
34 -79 0 -36 3 -41 23 -42 12 -1 22 3 22 9 0 5 9 0 19 -12 11 -13 18 -28 15
-35 -2 -6 7 -23 21 -36 14 -13 25 -20 25 -16 0 4 11 -6 25 -22 27 -32 34 -52
12 -33 -13 10 -27 6 -27 -8 0 -5 515 -5 738 -1 25 0 31 27 7 36 -8 4 -15 10
-15 16 0 5 4 7 10 3 5 -3 4 5 -3 17 -27 51 -51 79 -62 74 -18 -6 -45 29 -34
45 15 23 10 38 -11 36 -11 -1 -20 -5 -20 -11 0 -5 -9 1 -19 13 -11 13 -17 30
-14 38 4 11 2 14 -5 9 -6 -3 -23 10 -39 31 -15 21 -32 41 -37 44 -5 4 -5 12
-1 19 5 8 4 11 -3 6 -14 -8 -55 51 -48 69 3 8 1 16 -4 16 -6 1 -15 2 -22 3 -6
0 -12 11 -13 24 -2 27 -35 66 -35 42 0 -8 -9 -2 -19 14 -11 16 -17 34 -15 40
2 6 -1 18 -6 26 -9 13 -11 13 -20 0 -10 -16 -13 -8 -11 25 2 15 0 17 -7 6 -8
-10 -13 -8 -26 10 -9 13 -16 31 -16 41 0 21 -16 32 -24 16 -4 -7 -4 -3 -2 9 2
13 0 26 -5 29 -5 3 -9 0 -9 -7 0 -7 -9 -2 -20 11 -11 12 -17 27 -13 33 3 5 1
7 -5 3 -6 -3 -21 10 -33 31 -13 20 -36 51 -51 69 -16 18 -27 37 -26 42 2 6 0
10 -4 11 -20 3 -43 39 -42 63 2 22 -2 26 -20 22 -28 -5 -55 40 -30 50 8 3 14
11 14 18 0 9 -3 9 -10 -2 -5 -8 -11 -12 -13 -10 -2 3 -16 22 -31 42 -16 21
-33 35 -38 32 -6 -4 -9 -1 -6 6 2 7 -7 24 -19 36 -19 20 -22 28 -13 44 6 11 9
21 8 21 -2 1 -18 2 -36 4 -39 3 -33 -3 -66 68 -15 31 -32 57 -39 56 -9 0 -9
-2 1 -6 6 -2 12 -12 12 -20 0 -12 -5 -10 -21 8 -11 13 -16 25 -10 27 16 5 13
16 -9 29 -16 11 -18 10 -13 -4 4 -11 3 -14 -5 -9 -7 4 -12 18 -12 30 0 23 -16
44 -35 45 -5 1 -10 5 -10 10 0 5 -3 13 -7 17 -12 11 -9 26 3 18 8 -4 8 0 0 15
-7 12 -10 25 -7 30 3 5 -10 8 -29 6 -33 -2 -52 15 -45 40 1 6 4 21 6 34 2 17
0 21 -9 12 -16 -16 -27 -14 -20 5 3 9 0 20 -8 25 -22 14 -35 10 -14 -4 10 -8
15 -19 10 -26 -5 -9 -12 -6 -23 10 -18 27 -23 59 -9 59 6 0 7 3 4 6 -4 4 -13
2 -20 -5 -12 -9 -20 -4 -43 26 -16 21 -27 46 -25 57 2 14 -2 17 -13 13 -9 -4
-16 -2 -16 3 0 6 5 10 11 10 7 0 9 10 5 26 -5 19 -4 24 6 18 7 -4 10 -3 5 1
-4 5 -20 9 -35 10 -46 3 -55 9 -80 45 -14 19 -29 38 -34 41 -6 4 -11 27 -13
53 -1 26 -6 50 -10 54 -4 4 -5 -6 -1 -22 6 -26 5 -28 -8 -17 -9 8 -16 10 -16
6 0 -3 -11 7 -25 23 -14 17 -25 34 -24 39 4 23 -2 35 -17 29 -12 -4 -14 -1 -9
13 3 11 1 22 -5 26 -5 3 -10 0 -10 -7 -1 -7 -12 1 -25 17 -16 19 -23 37 -19
50 4 16 3 17 -5 5 -5 -8 -13 -11 -17 -7 -4 3 -1 14 7 24 12 14 12 16 0 8 -11
-6 -13 -4 -8 9 5 12 3 16 -5 13 -17 -6 -50 11 -44 22 15 24 -56 32 -261 31
-167 0 -213 2 -213 12 0 8 -3 9 -8 3 -4 -6 -23 -10 -42 -10 -29 0 -36 -4 -38
-22 -2 -13 -8 -23 -14 -23 -5 0 -8 7 -4 15 3 8 1 15 -4 15 -6 0 -10 -9 -10
-20 0 -18 -10 -25 -32 -21 -4 0 -6 -13 -4 -30 4 -30 -18 -64 -34 -54 -5 3 -11
-1 -13 -7 -4 -10 -8 -9 -16 2 -6 8 -11 11 -12 5 -1 -5 -3 -26 -5 -45 -4 -36
-17 -55 -37 -55 -7 0 -11 -8 -9 -18 2 -9 -2 -17 -8 -17 -5 0 -10 -5 -10 -11 0
-7 -18 -31 -39 -54 -30 -32 -42 -40 -51 -31 -6 6 -10 7 -9 1 5 -16 -32 -85
-42 -79 -13 8 -42 -24 -36 -40 3 -8 -5 -23 -17 -35 -27 -26 -37 -27 -29 -3 5
14 3 14 -10 -3 -8 -10 -12 -26 -9 -34 4 -10 1 -12 -8 -6 -9 5 -11 4 -6 -4 4
-6 0 -24 -9 -38 -14 -20 -19 -23 -26 -12 -7 12 -9 12 -9 0 0 -8 -6 -11 -15 -7
-13 4 -13 2 -5 -14 13 -24 13 -33 0 -25 -9 5 -14 -7 -12 -26 1 -4 -8 -15 -18
-24 -20 -18 -29 -8 -10 11 6 6 3 10 -9 10 -11 0 -17 -5 -14 -13 7 -19 -8 -16
-23 5 -13 16 -14 16 -8 -3 4 -11 13 -25 20 -31 13 -10 4 -37 -11 -35 -5 1 -10
-5 -11 -14 -3 -23 -31 -48 -37 -32 -3 6 -6 2 -6 -11 -1 -13 -5 -21 -10 -18
-11 7 -35 -20 -28 -31 2 -4 -5 -17 -16 -28 -17 -17 -19 -17 -14 -2 4 9 2 17
-4 17 -7 0 -9 -11 -7 -25 6 -31 -9 -33 -23 -2 -8 20 -9 19 -4 -6 5 -24 3 -27
-12 -19 -10 5 -33 8 -51 7 -38 -2 -56 20 -41 48 13 23 5 34 -23 32 -32 -2 -69
44 -56 69 7 13 7 16 -1 12 -6 -4 -11 -2 -11 3 0 20 -71 90 -85 85 -9 -4 -12 0
-8 14 2 11 0 23 -6 26 -6 4 -11 12 -11 18 0 7 6 6 15 -2 11 -9 15 -9 15 -1 0
7 5 9 13 5 6 -4 9 -3 4 1 -11 13 -67 13 -67 1 -1 -6 -10 0 -21 13 -11 13 -17
31 -15 38 3 8 2 12 -3 9 -12 -8 -63 56 -57 71 3 7 -1 10 -10 6 -11 -4 -15 0
-12 13 2 11 -2 18 -10 16 -7 -1 -18 9 -24 23 -6 14 -15 25 -20 25 -5 0 -6 11
-4 26 4 20 1 24 -13 22 -20 -3 -76 56 -67 71 9 14 -15 61 -27 54 -6 -4 -8 0
-4 11 5 13 2 15 -18 12 -17 -3 -25 0 -25 10 0 8 -5 14 -11 14 -5 0 -7 6 -3 12
5 7 9 21 9 30 1 15 -1 15 -13 5 -19 -15 -15 -17 -47 21 -21 25 -25 36 -16 45
13 13 15 31 2 23 -16 -10 -43 31 -37 56 3 13 3 17 0 11 -8 -18 -27 -16 -21 1
4 10 1 13 -9 9 -13 -5 -13 -8 1 -23 22 -25 18 -34 -7 -16 -19 13 -62 16 -264
16 -234 0 -242 -1 -270 -22 -23 -18 -27 -19 -21 -5 13 34 -3 16 -21 -23 -10
-22 -21 -37 -25 -34 -4 4 -7 2 -7 -4 0 -7 -5 -12 -11 -12 -6 0 -8 9 -4 23 6
18 5 20 -6 9 -7 -7 -14 -25 -15 -40 -1 -18 -6 -27 -17 -26 -9 1 -14 -2 -11 -7
3 -5 -4 -23 -16 -40 -20 -27 -23 -28 -35 -13 -13 18 -35 11 -35 -11 0 -8 9
-19 20 -25 18 -10 19 -13 5 -26 -8 -9 -15 -20 -15 -25 0 -6 -4 -8 -9 -4 -13 8
-53 -36 -47 -52 8 -20 -20 -40 -54 -38 -21 1 -28 -1 -20 -9 13 -13 13 -29 0
-21 -5 3 -10 1 -10 -4 0 -6 6 -11 13 -11 8 0 7 -4 -3 -10 -8 -5 -12 -10 -7
-10 4 0 -1 -8 -10 -18 -10 -10 -27 -30 -37 -44 -11 -15 -23 -25 -27 -23 -10 7
-32 -23 -25 -34 4 -5 2 -12 -2 -15 -5 -3 -14 6 -21 20 -6 14 -17 24 -24 21
-14 -4 -18 -54 -5 -79 4 -9 4 -19 -1 -22 -5 -3 -11 1 -15 9 -3 8 -11 15 -18
15 -9 0 -8 -3 2 -10 13 -8 12 -11 -5 -24 -11 -8 -20 -25 -20 -38 0 -14 -5 -22
-13 -20 -8 1 -12 -3 -10 -10 3 -7 -8 -26 -24 -43 -15 -16 -28 -33 -28 -37 0
-4 -12 -5 -27 -3 -19 2 -28 8 -26 19 0 10 -1 15 -4 12 -9 -9 -31 19 -25 33 3
8 1 12 -5 8 -6 -4 -18 2 -28 13 -10 11 -15 20 -11 20 4 0 -5 11 -20 25 -23 22
-25 27 -13 42 12 15 12 16 -3 10 -21 -7 -51 20 -44 39 3 9 0 11 -11 7 -13 -5
-15 -2 -9 13 10 24 19 65 10 44 -4 -8 -12 -18 -17 -22 -13 -8 -50 38 -52 64
-2 20 -15 38 -15 19 0 -7 -5 -9 -10 -6 -6 4 -8 15 -5 25 3 10 1 21 -5 25 -5 3
-10 1 -10 -6 0 -7 -8 -5 -20 6 -12 10 -18 25 -15 32 3 9 0 11 -6 7 -7 -4 -9 0
-5 12 7 23 -8 52 -18 35 -4 -6 -12 -9 -17 -5 -6 3 -3 12 8 20 17 13 16 14 -9
10 -16 -3 -28 0 -28 6 0 6 -8 16 -17 23 -15 11 -15 15 -3 30 8 10 15 33 16 53
1 31 -1 33 -12 17 -9 -12 -10 -23 -4 -35 5 -10 7 -20 3 -23 -11 -11 -23 4 -23
29 0 16 -6 24 -17 24 -13 0 -14 -3 -5 -12 24 -24 12 -31 -13 -8 -24 23 -33 41
-17 39 17 -3 32 2 32 10 0 5 -8 8 -17 7 -14 -1 -17 5 -15 24 2 14 5 31 5 39 1
8 -4 15 -11 17 -7 1 -8 0 -2 -3 15 -7 12 -23 -4 -17 -9 3 -17 -3 -21 -17 l-8
-23 -18 23 c-10 12 -16 28 -13 35 3 8 1 17 -5 21 -6 3 -11 11 -11 16 0 6 4 7
10 4 6 -3 7 1 4 10 -6 14 -8 14 -25 -1 -19 -17 -19 -16 -17 6 3 23 -15 39 -26
21z"/>
<path d="M4460 7220 c-8 -5 -24 -7 -35 -4 -18 4 -18 4 -3 -6 16 -10 58 1 58
15 0 7 -3 6 -20 -5z"/>
<path d="M5026 7217 c3 -10 9 -15 12 -12 3 3 0 11 -7 18 -10 9 -11 8 -5 -6z"/>
<path d="M7090 7226 c0 -2 7 -7 16 -10 8 -3 12 -2 9 4 -6 10 -25 14 -25 6z"/>
<path d="M6487 7180 c3 -11 9 -17 15 -14 5 3 4 12 -3 20 -16 19 -18 18 -12 -6z"/>
<path d="M2530 7146 c0 -2 7 -7 16 -10 8 -3 12 -2 9 4 -6 10 -25 14 -25 6z"/>
<path d="M5070 7095 c7 -9 15 -13 17 -11 7 7 -7 26 -19 26 -6 0 -6 -6 2 -15z"/>
<path d="M4246 7061 c-4 -5 -2 -20 3 -33 9 -21 9 -20 8 9 -2 36 -3 38 -11 24z"/>
<path d="M7240 7066 c0 -2 8 -10 18 -17 15 -13 16 -12 3 4 -13 16 -21 21 -21
13z"/>
<path d="M3310 7050 c0 -5 5 -10 10 -10 6 0 10 5 10 10 0 6 -4 10 -10 10 -5 0
-10 -4 -10 -10z"/>
<path d="M6326 6977 c3 -10 9 -15 12 -12 3 3 0 11 -7 18 -10 9 -11 8 -5 -6z"/>
<path d="M4194 6964 c3 -9 6 -20 6 -25 0 -6 4 -8 9 -5 12 8 2 46 -11 46 -6 0
-7 -7 -4 -16z"/>
<path d="M3345 6950 c-3 -5 -1 -10 4 -10 6 0 11 5 11 10 0 6 -2 10 -4 10 -3 0
-8 -4 -11 -10z"/>
<path d="M4167 6939 c4 -13 8 -18 11 -10 2 7 -1 18 -6 23 -8 8 -9 4 -5 -13z"/>
<path d="M7305 6940 c3 -5 8 -10 11 -10 2 0 4 5 4 10 0 6 -5 10 -11 10 -5 0
-7 -4 -4 -10z"/>
<path d="M5221 6895 c0 -5 6 -19 14 -29 8 -11 15 -15 15 -10 0 6 -7 19 -15 30
-8 10 -14 15 -14 9z"/>
<path d="M5250 6893 c0 -5 8 -17 17 -28 14 -18 15 -18 9 -2 -3 10 -6 23 -6 28
0 5 -4 9 -10 9 -5 0 -10 -3 -10 -7z"/>
<path d="M6250 6860 c0 -5 5 -10 11 -10 5 0 7 5 4 10 -3 6 -8 10 -11 10 -2 0
-4 -4 -4 -10z"/>
<path d="M7390 6819 c0 -5 5 -7 10 -4 6 3 10 8 10 11 0 2 -4 4 -10 4 -5 0 -10
-5 -10 -11z"/>
<path d="M7420 6815 c-7 -9 -10 -18 -7 -21 3 -3 10 4 17 15 13 25 8 27 -10 6z"/>
<path d="M5335 6800 c3 -5 8 -10 11 -10 2 0 4 5 4 10 0 6 -5 10 -11 10 -5 0
-7 -4 -4 -10z"/>
<path d="M6201 6794 c0 -11 3 -14 6 -6 3 7 2 16 -1 19 -3 4 -6 -2 -5 -13z"/>
<path d="M5305 6780 c3 -5 8 -10 11 -10 2 0 4 5 4 10 0 6 -5 10 -11 10 -5 0
-7 -4 -4 -10z"/>
<path d="M3560 6736 c0 -2 8 -10 18 -17 15 -13 16 -12 3 4 -13 16 -21 21 -21
13z"/>
<path d="M4026 6725 c-10 -7 -16 -19 -14 -26 2 -7 11 0 21 15 20 30 19 31 -7
11z"/>
<path d="M3545 6700 c3 -5 8 -10 11 -10 2 0 4 5 4 10 0 6 -5 10 -11 10 -5 0
-7 -4 -4 -10z"/>
<path d="M5390 6659 c0 -5 5 -7 10 -4 6 3 10 8 10 11 0 2 -4 4 -10 4 -5 0 -10
-5 -10 -11z"/>
<path d="M7554 6655 c8 -8 18 -15 22 -15 3 0 1 7 -6 15 -7 8 -17 15 -22 15 -5
0 -3 -7 6 -15z"/>
<path d="M2091 6634 c0 -11 3 -14 6 -6 3 7 2 16 -1 19 -3 4 -6 -2 -5 -13z"/>
<path d="M7530 6640 c0 -5 5 -10 11 -10 5 0 7 5 4 10 -3 6 -8 10 -11 10 -2 0
-4 -4 -4 -10z"/>
<path d="M7550 6616 c0 -2 7 -9 15 -16 13 -11 14 -10 9 4 -5 14 -24 23 -24 12z"/>
<path d="M3660 6575 c-7 -9 -10 -18 -7 -21 3 -3 10 4 17 15 13 25 8 27 -10 6z"/>
<path d="M2001 6534 c0 -11 3 -14 6 -6 3 7 2 16 -1 19 -3 4 -6 -2 -5 -13z"/>
<path d="M3840 6536 c0 -8 4 -17 9 -20 5 -4 7 3 4 14 -6 23 -13 26 -13 6z"/>
<path d="M3735 6500 c-4 -6 -4 -14 -1 -17 3 -4 6 0 6 8 0 8 7 4 16 -9 9 -13
13 -30 10 -39 -5 -13 -4 -14 9 -3 19 16 19 12 -9 45 -16 18 -26 23 -31 15z"/>
<path d="M5540 6506 c0 -2 7 -9 15 -16 13 -11 14 -10 9 4 -5 14 -24 23 -24 12z"/>
<path d="M2890 6481 c0 -8 -7 -23 -17 -33 -9 -10 -11 -18 -5 -18 6 0 16 8 22
18 10 16 10 16 20 0 6 -10 16 -18 23 -18 8 0 9 3 1 8 -5 4 -18 18 -27 32 -9
13 -17 18 -17 11z"/>
<path d="M6820 6470 c0 -5 5 -10 10 -10 6 0 10 5 10 10 0 6 -4 10 -10 10 -5 0
-10 -4 -10 -10z"/>
<path d="M3800 6460 c0 -5 4 -10 9 -10 6 0 13 5 16 10 3 6 -1 10 -9 10 -9 0
-16 -4 -16 -10z"/>
<path d="M4754 6451 c0 -11 4 -17 8 -15 4 3 8 12 8 20 0 8 -4 14 -8 14 -4 0
-8 -9 -8 -19z"/>
<path d="M6850 6440 c0 -5 5 -10 10 -10 6 0 10 5 10 10 0 6 -4 10 -10 10 -5 0
-10 -4 -10 -10z"/>
<path d="M3785 6430 c-3 -5 -1 -10 4 -10 6 0 11 5 11 10 0 6 -2 10 -4 10 -3 0
-8 -4 -11 -10z"/>
<path d="M5896 6417 c3 -10 9 -15 12 -12 3 3 0 11 -7 18 -10 9 -11 8 -5 -6z"/>
<path d="M6915 6400 c3 -5 8 -10 11 -10 2 0 4 5 4 10 0 6 -5 10 -11 10 -5 0
-7 -4 -4 -10z"/>
<path d="M5635 6370 c3 -5 8 -10 11 -10 2 0 4 5 4 10 0 6 -5 10 -11 10 -5 0
-7 -4 -4 -10z"/>
<path d="M2786 6344 c-4 -15 -3 -30 1 -35 4 -4 9 8 10 27 2 41 -2 44 -11 8z"/>
<path d="M6706 6336 c6 -15 4 -17 -6 -11 -9 6 -11 4 -5 -4 5 -9 10 -10 18 -2
8 8 7 14 -2 24 -10 10 -11 8 -5 -7z"/>
<path d="M1765 6259 c-4 -6 -5 -12 -2 -15 2 -3 7 2 10 11 7 17 1 20 -8 4z"/>
<path d="M4891 6244 c0 -11 3 -14 6 -6 3 7 2 16 -1 19 -3 4 -6 -2 -5 -13z"/>
<path d="M4920 6240 c0 -5 5 -10 11 -10 5 0 7 5 4 10 -3 6 -8 10 -11 10 -2 0
-4 -4 -4 -10z"/>
<path d="M4965 6200 c10 -11 20 -20 23 -20 3 0 -3 9 -13 20 -10 11 -20 20 -23
20 -3 0 3 -9 13 -20z"/>
<path d="M7901 6204 c0 -11 3 -14 6 -6 3 7 2 16 -1 19 -3 4 -6 -2 -5 -13z"/>
<path d="M4430 6159 c0 -5 5 -7 10 -4 6 3 10 8 10 11 0 2 -4 4 -10 4 -5 0 -10
-5 -10 -11z"/>
<path d="M4460 6160 c0 -5 5 -10 11 -10 5 0 7 5 4 10 -3 6 -8 10 -11 10 -2 0
-4 -4 -4 -10z"/>
<path d="M1720 6139 c0 -5 5 -7 10 -4 6 3 10 8 10 11 0 2 -4 4 -10 4 -5 0 -10
-5 -10 -11z"/>
<path d="M3207 6071 c-4 -17 -3 -21 5 -13 5 5 8 16 6 23 -3 8 -7 3 -11 -10z"/>
<path d="M7155 6080 c3 -5 8 -10 11 -10 2 0 4 5 4 10 0 6 -5 10 -11 10 -5 0
-7 -4 -4 -10z"/>
<path d="M5070 6062 c6 -13 14 -21 18 -18 3 4 -2 14 -12 24 -18 16 -18 16 -6
-6z"/>
<path d="M4360 6051 c0 -14 29 -21 36 -9 4 7 3 8 -4 4 -7 -4 -12 -2 -12 3 0 6
-4 11 -10 11 -5 0 -10 -4 -10 -9z"/>
<path d="M5050 6051 c0 -6 4 -13 10 -16 6 -3 7 1 4 9 -7 18 -14 21 -14 7z"/>
<path d="M7204 6003 c1 -32 6 -48 16 -51 13 -3 13 -2 1 6 -12 9 -12 13 -2 26
10 12 10 16 2 16 -7 0 -9 5 -6 10 4 6 11 7 17 4 6 -4 6 2 -1 15 -19 34 -29 24
-27 -26z"/>
<path d="M7245 5979 c-4 -6 -5 -12 -2 -15 2 -3 7 2 10 11 7 17 1 20 -8 4z"/>
<path d="M6445 5970 c-3 -5 -1 -10 4 -10 6 0 11 5 11 10 0 6 -2 10 -4 10 -3 0
-8 -4 -11 -10z"/>
<path d="M8139 5942 c12 -9 12 -13 -2 -27 -10 -9 -17 -22 -17 -28 0 -7 4 -6
10 3 8 13 11 13 19 1 6 -9 8 -3 7 19 -1 20 -8 35 -16 38 -13 3 -13 2 -1 -6z"/>
<path d="M6347 5923 c-4 -3 -7 -11 -7 -17 0 -6 5 -5 12 2 6 6 9 14 7 17 -3 3
-9 2 -12 -2z"/>
<path d="M2340 5830 c-9 -6 -10 -10 -3 -10 6 0 15 5 18 10 8 12 4 12 -15 0z"/>
<path d="M7370 5800 c0 -5 5 -10 11 -10 5 0 7 5 4 10 -3 6 -8 10 -11 10 -2 0
-4 -4 -4 -10z"/>
<path d="M8219 5769 c-6 -13 -7 -19 -1 -15 6 3 12 0 15 -6 2 -7 4 -1 3 14 -1
34 -2 34 -17 7z"/>
<path d="M5300 5725 c7 -9 15 -13 17 -11 7 7 -7 26 -19 26 -6 0 -6 -6 2 -15z"/>
<path d="M4063 5695 c-3 -9 -3 -18 -1 -21 3 -3 8 4 11 16 6 23 -1 27 -10 5z"/>
<path d="M4743 5698 c11 -7 -52 -13 -96 -10 -26 3 -63 -18 -49 -27 17 -10 -19
-38 -46 -36 -16 1 -19 -2 -12 -14 10 -19 -18 -80 -29 -62 -5 8 -12 3 -19 -14
-9 -20 -9 -25 0 -19 8 5 9 2 4 -12 -5 -10 -16 -46 -25 -79 -10 -34 -20 -53
-23 -45 -4 8 -6 -59 -6 -150 1 -91 3 -158 6 -150 6 16 43 -98 46 -140 1 -14
-3 -28 -9 -32 -6 -5 -3 -8 8 -8 9 0 17 6 17 13 0 6 9 -1 19 -17 23 -34 18 -64
-7 -44 -13 11 -14 10 -10 -2 4 -13 35 -15 187 -17 137 -2 181 1 179 10 -3 16
40 83 49 77 5 -3 9 6 10 20 1 14 11 63 22 110 43 172 21 364 -57 515 -23 44
-42 74 -42 67 0 -9 -12 -3 -32 14 -18 15 -32 31 -30 36 1 4 -4 8 -10 8 -10 0
-10 2 -1 8 8 5 -1 8 -22 8 -21 0 -30 -3 -22 -8z"/>
<path d="M4817 5699 c7 -7 15 -10 18 -7 3 3 -2 9 -12 12 -14 6 -15 5 -6 -5z"/>
<path d="M4850 5706 c0 -2 7 -7 16 -10 8 -3 12 -2 9 4 -6 10 -25 14 -25 6z"/>
<path d="M8270 5696 c0 -7 8 -20 18 -27 15 -13 16 -12 4 3 -8 9 -11 22 -7 28
3 5 1 10 -4 10 -6 0 -11 -6 -11 -14z"/>
<path d="M2212 5670 c-10 -16 -9 -18 3 -14 17 7 21 -11 5 -19 -6 -3 -5 -4 2
-3 14 3 20 43 9 51 -4 2 -12 -5 -19 -15z"/>
<path d="M4015 5680 c-3 -5 1 -10 10 -10 9 0 13 5 10 10 -3 6 -8 10 -10 10 -2
0 -7 -4 -10 -10z"/>
<path d="M7446 5675 c-3 -8 -1 -15 4 -15 6 0 10 7 10 15 0 8 -2 15 -4 15 -2 0
-6 -7 -10 -15z"/>
<path d="M7480 5680 c0 -5 7 -10 16 -10 8 0 12 5 9 10 -3 6 -10 10 -16 10 -5
0 -9 -4 -9 -10z"/>
<path d="M4810 5674 c0 -2 9 -8 20 -14 11 -6 20 -7 20 -2 0 6 -9 12 -20 15
-11 3 -20 3 -20 1z"/>
<path d="M4484 5616 c-3 -8 -1 -22 4 -32 7 -13 9 -10 8 15 -1 34 -4 38 -12 17z"/>
<path d="M7524 5596 c1 -19 4 -37 7 -40 3 -3 5 10 4 29 0 19 -3 37 -6 40 -3 3
-5 -10 -5 -29z"/>
<path d="M8373 5623 c-7 -3 -13 -9 -13 -15 0 -7 5 -6 14 1 11 9 15 9 19 -1 4
-9 6 -9 6 -1 1 15 -10 22 -26 16z"/>
<path d="M4510 5608 c0 -7 5 -20 10 -28 8 -12 10 -11 10 7 0 12 -4 25 -10 28
-5 3 -10 0 -10 -7z"/>
<path d="M4944 5563 c2 -12 -1 -24 -8 -26 -6 -2 -8 -7 -5 -11 12 -13 27 19 18
39 -9 19 -9 19 -5 -2z"/>
<path d="M6270 5534 c0 -13 18 -39 24 -34 2 3 -2 14 -10 24 -8 11 -14 16 -14
10z"/>
<path d="M8461 5484 c0 -11 3 -14 6 -6 3 7 2 16 -1 19 -3 4 -6 -2 -5 -13z"/>
<path d="M5478 5483 c6 -2 18 -2 25 0 6 3 1 5 -13 5 -14 0 -19 -2 -12 -5z"/>
<path d="M1126 5457 c3 -10 9 -15 12 -12 3 3 0 11 -7 18 -10 9 -11 8 -5 -6z"/>
<path d="M1154 5449 c0 -10 4 -19 8 -19 4 0 8 6 8 14 0 8 -4 17 -8 20 -4 2 -8
-4 -8 -15z"/>
<path d="M4456 5455 c-9 -26 -7 -32 5 -12 6 10 9 21 6 23 -2 3 -7 -2 -11 -11z"/>
<path d="M6360 5450 c0 -5 5 -10 11 -10 5 0 7 5 4 10 -3 6 -8 10 -11 10 -2 0
-4 -4 -4 -10z"/>
<path d="M4420 5410 c-1 -23 -2 -23 -10 -5 -7 16 -9 17 -9 3 -1 -9 4 -20 9
-23 12 -7 24 19 17 37 -3 7 -6 2 -7 -12z"/>
<path d="M5550 5405 c7 -8 17 -15 22 -15 5 0 3 7 -6 15 -8 8 -18 15 -22 15 -3
0 -1 -7 6 -15z"/>
<path d="M1060 5375 c-7 -9 -10 -18 -7 -21 3 -3 10 4 17 15 13 25 8 27 -10 6z"/>
<path d="M4981 5354 c0 -11 3 -14 6 -6 3 7 2 16 -1 19 -3 4 -6 -2 -5 -13z"/>
<path d="M4422 5330 c0 -14 2 -19 5 -12 2 6 2 18 0 25 -3 6 -5 1 -5 -13z"/>
<path d="M5007 5343 c-4 -3 -7 -13 -7 -22 1 -13 3 -13 11 2 11 19 8 33 -4 20z"/>
<path d="M6431 5324 c0 -11 3 -14 6 -6 3 7 2 16 -1 19 -3 4 -6 -2 -5 -13z"/>
<path d="M8625 5270 c0 -21 3 -37 6 -34 8 4 6 60 -1 68 -3 2 -5 -13 -5 -34z"/>
<path d="M8596 5285 c-9 -26 -7 -32 5 -12 6 10 9 21 6 23 -2 3 -7 -2 -11 -11z"/>
<path d="M7790 5256 c0 -2 8 -10 18 -17 15 -13 16 -12 3 4 -13 16 -21 21 -21
13z"/>
<path d="M7845 5230 c-7 -21 21 -77 32 -67 3 3 -2 16 -11 29 -18 25 -21 42 -6
33 6 -3 7 1 4 9 -8 21 -11 20 -19 -4z"/>
<path d="M5760 5189 c0 -5 5 -7 10 -4 6 3 10 8 10 11 0 2 -4 4 -10 4 -5 0 -10
-5 -10 -11z"/>
<path d="M8695 5149 c-10 -15 3 -25 16 -12 7 7 7 13 1 17 -6 3 -14 1 -17 -5z"/>
<path d="M4422 5130 c0 -14 2 -19 5 -12 2 6 2 18 0 25 -3 6 -5 1 -5 -13z"/>
<path d="M5000 5145 c0 -5 5 -17 10 -25 5 -8 10 -10 10 -5 0 6 -5 17 -10 25
-5 8 -10 11 -10 5z"/>
<path d="M5800 5133 c0 -13 5 -23 10 -23 13 0 13 11 0 30 -8 12 -10 11 -10 -7z"/>
<path d="M2675 5130 c-3 -5 -1 -10 4 -10 6 0 11 5 11 10 0 6 -2 10 -4 10 -3 0
-8 -4 -11 -10z"/>
<path d="M3575 5131 c-3 -5 -1 -12 5 -16 5 -3 10 1 10 9 0 18 -6 21 -15 7z"/>
<path d="M2648 5097 c-3 -19 -2 -25 4 -19 6 6 8 18 6 28 -3 14 -5 12 -10 -9z"/>
<path d="M7935 5103 c-3 -9 -1 -21 5 -27 8 -8 9 -6 5 7 -4 9 -3 17 3 17 5 0
12 -7 16 -15 3 -8 10 -15 16 -15 13 0 -10 38 -26 44 -7 3 -15 -2 -19 -11z"/>
<path d="M2690 5099 c0 -5 5 -7 10 -4 6 3 10 8 10 11 0 2 -4 4 -10 4 -5 0 -10
-5 -10 -11z"/>
<path d="M1746 5083 c-6 -14 -5 -15 5 -6 7 7 10 15 7 18 -3 3 -9 -2 -12 -12z"/>
<path d="M4404 5065 c-4 -9 -4 -19 0 -22 3 -4 6 2 7 13 1 15 3 13 9 -6 7 -23
8 -23 9 -3 1 27 -17 40 -25 18z"/>
<path d="M1667 5041 c-4 -17 -3 -21 5 -13 5 5 8 16 6 23 -3 8 -7 3 -11 -10z"/>
<path d="M4450 5025 c0 -5 5 -17 10 -25 5 -8 10 -10 10 -5 0 6 -5 17 -10 25
-5 8 -10 11 -10 5z"/>
<path d="M2560 4980 c0 -5 11 -9 25 -8 14 1 25 6 25 10 0 4 -11 8 -25 8 -14 0
-25 -4 -25 -10z"/>
<path d="M5920 4959 c0 -15 18 -19 23 -6 3 8 -1 14 -9 14 -8 0 -14 -4 -14 -8z"/>
<path d="M3410 4925 c-7 -9 -8 -15 -2 -15 5 0 12 7 16 15 3 8 4 15 2 15 -2 0
-9 -7 -16 -15z"/>
<path d="M4945 4909 c-4 -6 -5 -12 -2 -15 2 -3 7 2 10 11 7 17 1 20 -8 4z"/>
<path d="M646 4884 c-9 -24 -7 -27 9 -10 17 17 19 26 6 26 -5 0 -12 -7 -15
-16z"/>
<path d="M2486 4884 c-4 -9 -4 -19 -1 -22 2 -3 7 3 11 12 4 9 4 19 1 22 -2 3
-7 -3 -11 -12z"/>
<path d="M8091 4884 c0 -11 3 -14 6 -6 3 7 2 16 -1 19 -3 4 -6 -2 -5 -13z"/>
<path d="M4515 4880 c3 -5 8 -10 11 -10 2 0 4 5 4 10 0 6 -5 10 -11 10 -5 0
-7 -4 -4 -10z"/>
<path d="M4911 4874 c0 -11 3 -14 6 -6 3 7 2 16 -1 19 -3 4 -6 -2 -5 -13z"/>
<path d="M8120 4880 c0 -5 5 -10 11 -10 5 0 7 5 4 10 -3 6 -8 10 -11 10 -2 0
-4 -4 -4 -10z"/>
<path d="M667 4858 c-10 -11 -17 -22 -14 -24 2 -2 12 5 22 16 23 26 16 33 -8
8z"/>
<path d="M8910 4871 c0 -6 4 -13 10 -16 6 -3 7 1 4 9 -7 18 -14 21 -14 7z"/>
<path d="M4480 4851 c0 -6 4 -13 10 -16 6 -3 7 1 4 9 -7 18 -14 21 -14 7z"/>
<path d="M6008 4833 c7 -3 16 -2 19 1 4 3 -2 6 -13 5 -11 0 -14 -3 -6 -6z"/>
<path d="M4083 4470 c0 -19 1 -29 4 -22 6 14 43 16 43 2 0 -6 15 -9 33 -8 28
3 32 0 35 -24 2 -16 7 -28 12 -28 5 0 7 8 3 18 -6 16 -5 15 15 -1 11 -11 19
-24 16 -30 -2 -7 10 -27 26 -46 17 -18 31 -38 31 -42 3 -19 5 -25 17 -45 6
-12 8 -24 5 -28 -3 -3 -1 -6 5 -6 7 0 12 -6 12 -14 0 -7 6 -26 14 -41 13 -24
13 -31 -1 -52 -9 -13 -13 -26 -9 -30 3 -3 6 0 6 8 0 12 2 11 11 -1 8 -12 9
-10 4 8 -4 13 -2 22 4 22 6 0 11 -4 11 -9 0 -5 3 -16 6 -24 3 -8 -3 -23 -13
-33 -14 -14 -15 -17 -2 -12 25 10 42 -7 42 -42 0 -17 3 -26 7 -20 4 6 12 -6
18 -26 6 -21 8 -42 5 -47 -4 -6 -1 -7 7 -2 8 5 11 3 8 -6 -3 -8 0 -21 7 -29
16 -18 115 -280 114 -301 0 -9 -4 -6 -10 6 l-9 20 3 -20 c2 -11 9 -19 15 -17
7 1 15 -6 18 -15 3 -10 15 -40 25 -68 11 -27 21 -59 24 -70 7 -36 30 -90 40
-97 26 -19 89 19 79 47 -3 7 4 15 17 18 18 5 21 11 16 36 -7 32 10 94 23 86 4
-3 8 5 8 18 0 33 103 307 113 301 5 -3 9 5 9 18 0 13 10 51 22 85 18 53 24 61
36 50 13 -10 14 -9 4 10 -10 18 -8 33 9 80 22 58 36 76 51 67 11 -7 10 10 -2
22 -11 11 -2 54 12 54 5 0 7 4 4 9 -3 5 3 29 14 52 11 24 20 37 20 29 0 -12 3
-11 11 3 5 9 7 22 4 28 -9 14 44 81 57 73 7 -4 8 -2 4 5 -10 15 34 52 55 45 9
-2 24 2 32 11 9 8 20 15 25 15 5 0 15 6 21 14 9 11 9 16 0 22 -14 8 -415 7
-429 -1 -5 -3 -11 1 -13 7 -4 10 -6 10 -6 0 -1 -18 24 -42 44 -42 9 0 13 -4
10 -10 -3 -5 -1 -10 4 -10 6 0 11 6 11 13 1 6 6 2 13 -11 10 -18 15 -20 25
-10 18 18 51 -27 52 -70 0 -40 -76 -280 -154 -486 -34 -90 -45 -104 -63 -80
-17 24 -16 10 2 -26 11 -22 12 -35 4 -59 -6 -17 -14 -31 -17 -31 -4 0 -8 -12
-9 -26 0 -15 -7 -30 -15 -35 -7 -5 -9 -9 -4 -9 6 0 5 -5 -2 -12 -7 -7 -12 -21
-12 -32 0 -45 -13 -2 -15 49 -1 31 -6 60 -12 66 -7 7 -9 2 -6 -18 3 -22 2 -25
-6 -12 -6 9 -12 25 -14 35 -2 11 -14 42 -26 69 -13 28 -24 62 -24 77 0 15 -4
25 -8 23 -9 -6 -41 83 -40 113 0 12 -3 22 -7 22 -13 0 -63 152 -60 180 2 17
-1 24 -11 22 -8 -2 -11 3 -8 13 4 8 3 15 -2 15 -8 0 -31 88 -31 121 0 11 4 18
8 15 4 -3 7 13 6 35 -1 21 2 36 7 33 5 -3 9 -1 9 5 0 16 83 38 88 23 7 -22 18
-12 20 18 2 23 -2 30 -15 31 -10 0 -135 1 -278 2 l-260 2 -2 -35z"/>
<path d="M5345 4470 c-3 -5 -1 -10 4 -10 6 0 11 5 11 10 0 6 -2 10 -4 10 -3 0
-8 -4 -11 -10z"/>
<path d="M4585 4440 c4 -6 11 -8 16 -5 14 9 11 15 -7 15 -8 0 -12 -5 -9 -10z"/>
<path d="M5305 4440 c-3 -5 -1 -10 4 -10 6 0 11 5 11 10 0 6 -2 10 -4 10 -3 0
-8 -4 -11 -10z"/>
<path d="M4545 4430 c-3 -6 1 -7 9 -4 18 7 21 14 7 14 -6 0 -13 -4 -16 -10z"/>
<path d="M4531 4384 c0 -11 3 -14 6 -6 3 7 2 16 -1 19 -3 4 -6 -2 -5 -13z"/>
<path d="M5177 4364 c-4 -4 -1 -14 6 -22 10 -12 9 -16 -1 -20 -10 -3 -10 -7
-1 -18 7 -8 8 -18 4 -22 -4 -4 -10 -1 -12 6 -6 16 -20 15 -26 -2 -4 -11 1 -14
21 -13 23 2 27 7 28 32 1 37 -9 68 -19 59z"/>
<path d="M4537 4343 c-15 -54 -16 -72 -5 -79 6 -4 8 -3 5 3 -3 5 -2 27 3 48 9
39 6 63 -3 28z"/>
<path d="M5016 4334 c-4 -14 -5 -28 -3 -31 3 -2 8 8 11 23 4 14 5 28 3 31 -3
2 -8 -8 -11 -23z"/>
<path d="M4264 4292 c0 -10 6 -19 13 -19 8 0 9 6 2 19 -5 10 -11 18 -12 18 -2
0 -3 -8 -3 -18z"/>
<path d="M4982 4290 c0 -14 2 -19 5 -12 2 6 2 18 0 25 -3 6 -5 1 -5 -13z"/>
<path d="M4961 4284 c0 -11 3 -14 6 -6 3 7 2 16 -1 19 -3 4 -6 -2 -5 -13z"/>
<path d="M5108 4248 c-4 -37 -4 -68 0 -63 6 6 12 75 7 75 -3 0 -6 -6 -7 -12z"/>
<path d="M4981 4224 c0 -11 3 -14 6 -6 3 7 2 16 -1 19 -3 4 -6 -2 -5 -13z"/>
<path d="M4966 4187 c3 -10 9 -15 12 -12 3 3 0 11 -7 18 -10 9 -11 8 -5 -6z"/>
<path d="M1614 4182 c6 -11 -5 -13 -55 -12 -166 4 -201 1 -197 -17 2 -10 18
-21 40 -26 46 -11 79 -46 84 -89 2 -18 6 -43 9 -55 3 -15 1 -23 -7 -23 -10 0
-9 -3 1 -9 12 -7 13 -52 9 -262 -3 -140 -11 -266 -16 -280 -12 -31 -67 -62
-94 -53 -10 3 -18 0 -18 -6 0 -6 -4 -9 -9 -5 -11 6 -26 -13 -17 -22 3 -4 172
-7 376 -8 l369 -2 7 56 c5 43 9 51 15 36 5 -12 6 -2 3 28 -4 31 -3 47 5 47 6
0 8 11 5 28 -3 15 -1 38 5 52 5 14 10 19 10 13 1 -7 5 -13 10 -13 5 0 3 14 -5
30 -16 31 -28 41 -18 15 5 -11 2 -13 -10 -9 -11 4 -20 -2 -29 -23 -8 -21 -18
-29 -33 -28 -17 1 -20 -4 -19 -29 2 -26 -7 -39 -49 -78 -60 -56 -117 -78 -202
-78 -95 0 -123 9 -145 44 -18 28 -19 50 -18 251 1 121 5 265 8 320 7 120 19
139 96 152 34 6 50 13 50 23 0 12 -16 16 -70 18 -38 2 -76 8 -84 15 -12 10
-13 9 -7 -1z"/>
<path d="M1658 4183 c7 -3 16 -2 19 1 4 3 -2 6 -13 5 -11 0 -14 -3 -6 -6z"/>
<path d="M2406 4179 c4 -7 -38 -9 -119 -7 -124 3 -147 -2 -147 -33 0 -7 -10
-9 -25 -7 -13 3 -22 1 -19 -4 3 -5 26 -6 50 -4 56 7 90 -9 105 -48 7 -19 15
-141 20 -316 9 -339 8 -320 20 -320 5 0 8 -10 6 -22 -1 -14 3 -22 10 -20 7 1
22 -7 34 -19 55 -55 212 -88 329 -70 37 6 74 9 82 8 7 -2 9 -2 5 1 -10 5 89
52 111 52 14 0 14 2 3 9 -9 6 -10 11 -2 15 6 4 11 4 11 -1 0 -4 11 14 24 41
l24 49 7 -32 c4 -18 9 -30 12 -28 2 3 0 21 -5 40 -6 23 -6 52 0 83 12 60 14
93 16 312 2 156 4 172 20 173 10 0 12 3 5 6 -17 6 -16 25 3 49 14 18 15 18 9
-6 -5 -19 -4 -22 4 -10 6 8 11 23 11 33 0 9 5 17 11 17 5 0 7 -6 3 -12 -4 -7
2 -5 13 5 11 9 25 17 31 17 21 0 13 27 -14 45 -15 9 -24 13 -21 9 3 -5 -50
-10 -116 -12 -67 -2 -130 -5 -140 -8 -29 -9 -13 -28 28 -35 38 -6 84 -45 86
-72 0 -7 2 -21 4 -32 24 -134 9 -466 -24 -538 -13 -29 -26 -43 -40 -44 -12 -1
-19 2 -16 8 4 5 13 9 21 9 8 0 12 4 9 10 -9 14 -45 -11 -42 -30 1 -8 6 -18 11
-21 5 -4 -9 -15 -30 -25 -56 -27 -226 -27 -269 -1 -30 19 -45 57 -22 57 8 0 7
3 -2 9 -8 5 -25 8 -38 6 -28 -3 -48 34 -37 68 4 13 2 17 -5 13 -8 -5 -11 61
-11 236 1 230 2 245 23 288 19 40 26 45 54 44 18 0 30 2 28 4 -3 3 3 10 12 17
22 16 8 35 -25 35 -15 0 -42 4 -60 9 -21 7 -30 6 -26 0z"/>
<path d="M3271 4179 c13 -8 97 -13 88 -5 -2 2 -26 6 -53 9 -30 3 -43 1 -35 -4z"/>
<path d="M3515 4180 c-13 -6 -15 -9 -5 -9 8 0 22 4 30 9 18 12 2 12 -25 0z"/>
<path d="M3584 4182 c-7 -4 -8 -15 -3 -27 7 -19 8 -19 8 2 1 12 7 24 14 26 6
3 8 6 2 6 -5 0 -15 -3 -21 -7z"/>
<path d="M5897 4180 c-16 -5 -35 -14 -43 -21 -16 -13 -19 -39 -4 -39 5 0 7 8
3 18 -5 14 -3 15 8 5 7 -7 21 -13 31 -13 9 0 22 -8 27 -17 8 -14 10 -15 11 -3
0 13 1 13 10 0 5 -8 10 -11 10 -7 0 14 24 -16 38 -46 13 -30 18 -554 6 -616
-6 -28 -48 -64 -70 -60 -3 0 -9 -3 -12 -7 -4 -4 5 -4 21 0 15 3 27 4 27 1 0
-9 -47 -24 -83 -27 -22 -1 -33 -7 -33 -17 0 -14 42 -16 372 -16 205 0 375 3
379 6 3 4 8 32 10 64 2 31 10 67 18 79 13 21 14 106 2 126 -8 12 -35 -6 -35
-22 0 -6 -16 -32 -36 -59 -30 -42 -38 -47 -55 -39 -10 6 -20 8 -20 5 -1 -3 -3
-9 -4 -15 -1 -5 -3 -14 -4 -20 0 -5 -8 -10 -16 -10 -7 0 -19 -8 -24 -17 -9
-16 -12 -16 -21 -3 -6 9 -10 10 -10 3 0 -6 5 -15 10 -18 15 -9 2 -25 -14 -19
-8 3 -17 1 -21 -5 -3 -7 -44 -11 -99 -11 -77 0 -98 3 -117 19 l-24 19 -3 334
c-2 278 -1 330 10 315 13 -17 14 -17 14 2 0 12 -4 21 -8 21 -15 0 16 39 39 49
30 14 54 14 33 1 -9 -6 -10 -10 -3 -10 6 0 15 5 18 10 3 6 14 10 23 10 15 0
15 -2 2 -10 -11 -8 -9 -9 13 -8 30 3 33 8 15 26 -9 9 -9 15 0 24 16 16 15 25
-3 25 -8 0 -15 -4 -15 -8 0 -5 -80 -8 -177 -8 -101 1 -169 5 -158 10 27 10 -2
10 -38 -1z"/>
<path d="M6696 4178 c3 -4 -1 -8 -8 -8 -7 0 -22 -8 -33 -17 -16 -12 -16 -14
-3 -10 10 3 20 2 23 -3 3 -5 0 -10 -7 -13 -7 -2 0 -2 15 0 16 3 42 -1 58 -7
23 -10 28 -17 24 -34 -4 -14 -3 -17 3 -8 7 10 11 10 22 -3 11 -13 10 -18 -6
-30 -16 -12 -16 -14 -2 -9 27 9 30 -23 26 -323 -3 -247 -5 -281 -21 -308 l-18
-30 5 33 c4 20 2 31 -4 27 -6 -3 -10 -15 -10 -26 0 -10 -5 -19 -11 -19 -7 0
-10 12 -7 29 2 17 0 27 -5 24 -5 -3 -7 -18 -5 -34 3 -16 0 -29 -6 -30 -6 0 -2
-4 9 -9 19 -7 18 -8 -5 -13 -14 -4 -34 -8 -45 -9 -11 -2 -20 -10 -20 -18 0
-12 55 -14 362 -16 198 -1 365 1 370 5 4 3 9 17 11 31 2 14 7 52 13 85 16 99
19 184 7 191 -8 5 -9 2 -5 -9 3 -10 3 -17 -2 -17 -5 0 -14 -13 -21 -29 -8 -21
-17 -28 -31 -26 -16 3 -18 1 -10 -13 18 -32 -110 -159 -146 -145 -11 4 -14 2
-9 -5 13 -21 -54 -24 -204 -10 -66 6 -75 61 -65 426 l7 267 26 28 c26 27 50
37 35 15 -4 -7 5 -5 20 5 14 9 33 17 41 17 20 0 31 19 18 32 -6 6 -68 9 -152
9 -78 -1 -139 2 -137 6 3 4 -19 8 -48 9 -30 0 -52 -3 -49 -8z"/>
<path d="M6998 4183 c7 -3 16 -2 19 1 4 3 -2 6 -13 5 -11 0 -14 -3 -6 -6z"/>
<path d="M7856 4178 c7 -11 -42 -109 -51 -101 -4 5 -6 0 -2 -9 3 -9 0 -19 -9
-22 -8 -3 -13 -9 -12 -13 1 -4 -4 -19 -11 -32 -8 -14 -9 -21 -2 -17 19 12 12
-12 -9 -32 -14 -13 -18 -25 -14 -37 4 -10 3 -16 -2 -13 -5 4 -9 -4 -10 -15 -1
-22 -34 -117 -44 -127 -3 -3 -5 -9 -5 -15 -1 -25 -38 -115 -46 -110 -5 4 -6
-1 -3 -9 4 -9 1 -16 -6 -16 -7 0 -10 -7 -6 -15 7 -20 -4 -46 -17 -38 -6 3 -7
1 -3 -5 7 -12 -18 -82 -30 -82 -3 0 -3 11 0 25 4 15 2 25 -4 25 -6 0 -10 -15
-8 -34 1 -19 6 -32 10 -30 4 3 8 1 8 -5 0 -5 -4 -12 -9 -16 -12 -7 -31 26 -32
57 -1 16 -3 13 -9 -12 -5 -19 -7 -37 -4 -39 2 -2 4 2 4 10 0 8 6 5 15 -8 22
-31 7 -60 -28 -54 -5 1 -6 -3 -2 -9 3 -5 -6 -15 -20 -20 -33 -12 -38 -13 -30
-1 3 5 1 12 -5 16 -10 6 -12 0 -12 -30 0 -8 0 -19 1 -24 0 -4 69 -8 153 -7
131 1 151 3 153 17 2 12 -3 15 -18 11 -14 -3 -18 -1 -13 6 4 7 13 12 20 12 7
0 13 7 13 15 0 19 1 19 -27 -5 -25 -22 -45 -26 -55 -10 -3 6 2 10 12 11 16 0
16 1 -2 8 -11 5 -23 4 -26 -1 -3 -5 -12 -2 -19 7 -11 14 -11 29 4 93 19 81 52
162 66 162 5 0 11 -8 13 -17 4 -17 5 -17 6 0 1 16 13 18 131 16 71 0 128 -5
125 -9 -3 -5 -1 -11 4 -14 14 -9 63 -166 57 -183 -3 -8 -2 -23 4 -33 13 -23
-8 -41 -58 -49 -23 -4 -37 -12 -37 -21 0 -13 29 -15 189 -15 143 0 190 3 193
13 3 7 -4 12 -17 12 -13 0 -19 4 -14 11 4 8 -1 9 -17 5 -22 -6 -22 -6 -7 7 16
13 14 14 -20 13 l-37 -1 2 40 c1 33 0 36 -7 18 -12 -29 -24 -30 -15 -2 4 13 3
19 -3 15 -10 -6 -43 72 -46 109 0 13 -4 21 -7 19 -6 -3 -49 103 -53 130 -1 6
-5 16 -8 22 -4 6 -27 64 -51 130 -25 65 -63 164 -86 218 -22 55 -38 102 -36
106 2 3 -11 6 -30 6 -18 0 -31 -4 -29 -8z"/>
<path d="M3235 4170 c16 -8 11 -9 -25 -9 -81 1 -90 0 -84 -15 3 -8 25 -19 50
-25 29 -8 42 -16 38 -23 -5 -7 -3 -8 5 -3 14 8 64 -33 56 -46 -3 -4 -1 -10 4
-13 5 -4 8 -19 6 -35 -2 -18 2 -34 11 -42 12 -10 13 -9 8 5 -3 9 -2 16 4 16 5
0 13 -7 16 -16 5 -13 9 -14 20 -5 11 9 15 8 20 -5 3 -9 4 -20 1 -25 -4 -5 2
-6 12 -2 17 6 17 5 1 -14 -10 -11 -18 -24 -18 -29 0 -5 5 -1 11 9 15 25 22 22
51 -22 17 -27 22 -43 16 -54 -6 -13 -4 -15 11 -12 15 3 28 -9 50 -45 17 -27
26 -52 21 -55 -5 -3 -12 -1 -15 5 -5 8 -11 8 -20 0 -8 -7 -20 -8 -27 -4 -7 4
-5 -2 5 -13 14 -16 15 -22 5 -26 -8 -3 -6 -6 5 -6 17 -1 17 -2 3 -17 -9 -8
-16 -19 -16 -24 0 -5 -7 -7 -16 -3 -10 4 -14 1 -12 -9 3 -15 -49 -104 -79
-133 -8 -8 -19 -12 -25 -9 -9 6 -42 -31 -44 -51 -1 -5 -2 -15 -3 -20 -2 -17
-53 -41 -91 -44 -37 -2 -56 -13 -46 -29 8 -13 364 -13 372 0 8 13 -14 28 -44
28 -13 0 -36 7 -53 15 -24 13 -28 19 -19 35 13 25 13 33 -2 24 -8 -5 -9 -2 -5
10 4 10 7 20 7 22 0 2 6 4 14 4 8 0 18 4 21 10 4 6 -1 7 -11 3 -13 -5 -10 4
12 33 45 60 57 64 66 19 3 -16 5 -15 10 7 3 15 2 25 -2 23 -4 -3 -12 1 -18 8
-7 8 -3 22 14 47 13 19 24 31 24 26 0 -5 7 -3 15 4 10 9 19 9 28 2 6 -6 17
-12 22 -14 6 -1 9 -7 7 -11 -1 -4 10 -29 24 -55 19 -35 24 -40 20 -19 -5 19
-3 26 4 22 5 -3 10 -12 10 -19 0 -6 6 -18 12 -24 7 -7 13 -20 13 -30 0 -9 6
-16 13 -15 7 2 12 -7 12 -20 0 -17 -2 -19 -10 -7 -6 10 -9 5 -8 -18 1 -18 5
-35 10 -38 18 -11 6 -24 -24 -25 l-33 -2 35 -7 c33 -7 34 -7 6 -9 -16 0 -35
-9 -42 -18 -13 -17 -13 -17 -14 0 0 10 -4 16 -9 13 -5 -4 -12 0 -14 6 -4 8 -6
9 -6 2 -3 -34 30 -39 250 -40 211 -1 218 0 223 20 3 11 3 22 1 25 -3 2 -5 0
-5 -6 0 -6 -9 -9 -20 -6 -11 3 -20 14 -20 24 0 13 -5 16 -16 12 -13 -5 -13 -8
-2 -15 9 -7 5 -8 -12 -4 -14 3 -29 6 -33 6 -5 0 -5 10 -1 22 6 21 5 22 -11 8
-16 -14 -17 -13 -11 8 7 22 6 23 -31 26 -6 1 -30 22 -52 48 -28 32 -39 52 -35
65 5 15 4 15 -5 3 -11 -15 -15 -8 -12 22 1 9 -3 19 -8 23 -7 4 -8 -1 -5 -12 4
-11 -4 -6 -20 12 -14 17 -25 33 -26 37 0 4 -11 19 -25 34 -14 15 -25 32 -25
37 0 6 -10 21 -22 35 -23 23 -23 24 -4 38 11 8 15 14 9 14 -7 0 -15 -5 -18
-10 -9 -15 -25 -2 -19 15 4 8 11 12 17 8 6 -3 7 -1 3 6 -4 6 4 25 18 42 23 27
26 28 26 10 0 -12 -4 -21 -10 -21 -5 0 -10 -5 -10 -11 0 -8 5 -8 15 1 8 7 15
19 15 26 0 8 5 14 11 14 6 0 9 -7 5 -15 -3 -8 0 -15 5 -15 6 0 9 9 6 19 -2 10
-1 25 4 32 4 8 3 19 -3 26 -7 9 -7 13 1 13 6 0 10 6 9 13 -2 6 3 11 10 9 6 -1
11 1 11 5 -4 22 2 25 14 8 11 -14 16 -15 22 -5 5 8 4 11 -2 7 -6 -4 -10 4 -10
18 0 27 11 33 21 13 3 -7 3 -3 0 10 -4 15 -1 22 8 20 7 -2 12 4 10 14 -2 12 2
16 13 12 8 -3 13 -9 10 -13 -2 -4 9 -8 25 -8 28 0 29 2 25 38 l-5 38 55 12
c30 7 55 16 55 20 0 19 -40 26 -149 23 -76 -1 -101 0 -71 5 38 7 33 8 -35 7
-48 0 -70 -3 -55 -7 22 -6 21 -7 -11 -8 -20 -1 -39 -4 -42 -8 -11 -10 14 -33
37 -33 34 0 66 -28 66 -58 0 -32 -15 -59 -24 -44 -3 6 -14 9 -24 7 -9 -2 -20
-4 -24 -4 -5 -1 -8 -6 -8 -12 0 -5 5 -7 10 -4 6 3 10 2 10 -4 0 -5 -5 -13 -11
-17 -6 -3 -9 -17 -6 -31 3 -15 -3 -32 -15 -46 -16 -18 -19 -19 -14 -4 4 11 2
16 -5 12 -5 -4 -7 -15 -4 -24 6 -21 -19 -48 -30 -31 -3 5 -4 20 0 33 5 20 5
20 -9 -3 -8 -14 -17 -24 -21 -23 -15 4 -33 38 -30 59 1 16 -3 21 -19 20 -15
-1 -21 5 -21 19 0 12 -6 19 -14 17 -8 -2 -11 3 -8 11 2 7 -1 21 -9 32 -8 10
-14 15 -14 9 0 -5 -7 4 -15 20 -17 32 -20 60 -5 51 6 -3 10 -1 10 4 0 6 15 11
33 11 20 0 39 8 50 20 19 23 39 20 -173 24 -58 1 -116 5 -130 9 -21 6 -22 6
-5 -3z"/>
<path d="M4020 4171 c0 -5 5 -13 10 -16 6 -3 10 -2 10 4 0 5 -4 13 -10 16 -5
3 -10 2 -10 -4z"/>
<path d="M5460 4170 c-59 -5 -68 -20 -20 -33 63 -16 65 -25 68 -399 3 -367 1
-383 -46 -372 -21 4 -24 3 -12 -5 13 -9 12 -11 -5 -11 -11 0 -28 -8 -37 -19
-15 -18 -11 -19 166 -16 l181 2 0 23 c0 13 -6 25 -14 28 -8 3 -11 0 -7 -7 4
-7 -1 -11 -13 -11 -11 0 -23 5 -26 10 -3 6 -1 10 5 10 6 0 8 5 5 10 -4 6 -16
10 -28 8 -19 -3 -23 3 -29 52 -4 30 -7 181 -7 335 0 329 4 346 70 340 23 -2
37 0 34 6 -4 5 -2 9 4 9 5 0 8 8 7 18 -3 15 -18 18 -122 22 -65 3 -144 3 -174
0z"/>
<path d="M7968 4168 c7 -7 12 -22 12 -34 0 -13 4 -26 10 -29 5 -3 8 0 6 7 -3
7 -7 25 -10 41 -4 15 -12 27 -18 27 -9 0 -9 -3 0 -12z"/>
<path d="M5366 4153 c-8 -21 10 -41 24 -27 11 11 3 44 -10 44 -4 0 -11 -8 -14
-17z"/>
<path d="M7102 4150 c0 -14 2 -19 5 -12 2 6 2 18 0 25 -3 6 -5 1 -5 -13z"/>
<path d="M2115 4150 c3 -5 8 -10 11 -10 2 0 4 5 4 10 0 6 -5 10 -11 10 -5 0
-7 -4 -4 -10z"/>
<path d="M4020 4125 c-8 -9 -8 -15 -2 -15 12 0 26 19 19 26 -2 2 -10 -2 -17
-11z"/>
<path d="M7951 4123 c-1 -12 4 -25 9 -28 12 -7 12 2 0 30 -8 19 -9 19 -9 -2z"/>
<path d="M5405 4120 c-3 -6 1 -7 9 -4 18 7 21 14 7 14 -6 0 -13 -4 -16 -10z"/>
<path d="M6721 4110 c0 -8 4 -22 9 -30 12 -18 12 -2 0 25 -6 13 -9 15 -9 5z"/>
<path d="M1671 4094 c0 -11 3 -14 6 -6 3 7 2 16 -1 19 -3 4 -6 -2 -5 -13z"/>
<path d="M7773 4083 c6 -13 11 -22 12 -21 1 2 8 13 14 25 11 21 9 23 -13 21
-21 -2 -22 -5 -13 -25z"/>
<path d="M2810 4084 c0 -8 5 -12 10 -9 6 4 8 11 5 16 -9 14 -15 11 -15 -7z"/>
<path d="M2437 4083 c-4 -3 -7 -16 -6 -27 0 -19 1 -19 10 3 10 24 8 36 -4 24z"/>
<path d="M2840 4080 c0 -5 5 -10 11 -10 5 0 7 5 4 10 -3 6 -8 10 -11 10 -2 0
-4 -4 -4 -10z"/>
<path d="M5451 4074 c0 -11 3 -14 6 -6 3 7 2 16 -1 19 -3 4 -6 -2 -5 -13z"/>
<path d="M5925 4080 c-3 -5 -1 -10 4 -10 6 0 11 5 11 10 0 6 -2 10 -4 10 -3 0
-8 -4 -11 -10z"/>
<path d="M5950 4081 c0 -5 5 -13 10 -16 6 -3 10 -2 10 4 0 5 -4 13 -10 16 -5
3 -10 2 -10 -4z"/>
<path d="M1650 4070 c0 -5 5 -10 11 -10 5 0 7 5 4 10 -3 6 -8 10 -11 10 -2 0
-4 -4 -4 -10z"/>
<path d="M3233 4066 c13 -10 14 -15 6 -18 -9 -3 -8 -6 3 -10 11 -5 15 -2 13
10 -2 9 -4 20 -4 25 -1 4 -9 7 -18 7 -17 -1 -17 -1 0 -14z"/>
<path d="M4902 4055 c0 -16 2 -22 5 -12 2 9 2 23 0 30 -3 6 -5 -1 -5 -18z"/>
<path d="M3702 4054 c9 -9 21 -15 27 -13 6 2 -2 10 -17 17 -25 11 -25 11 -10
-4z"/>
<path d="M3010 4049 c0 -5 5 -7 10 -4 6 3 10 8 10 11 0 2 -4 4 -10 4 -5 0 -10
-5 -10 -11z"/>
<path d="M5937 4053 c-4 -3 -7 -11 -7 -17 0 -6 5 -5 12 2 6 6 9 14 7 17 -3 3
-9 2 -12 -2z"/>
<path d="M3502 4016 c7 -8 15 -12 17 -11 5 6 -10 25 -20 25 -5 0 -4 -6 3 -14z"/>
<path d="M1642 3970 c0 -14 2 -19 5 -12 2 6 2 18 0 25 -3 6 -5 1 -5 -13z"/>
<path d="M3605 3939 c-4 -6 -5 -12 -2 -15 2 -3 7 2 10 11 7 17 1 20 -8 4z"/>
<path d="M4410 3931 c13 -26 14 -52 0 -31 -5 8 -10 11 -10 5 0 -5 4 -16 9 -24
7 -11 10 -9 15 7 6 19 -7 62 -20 62 -2 0 0 -9 6 -19z"/>
<path d="M7716 3935 c-9 -26 -7 -32 5 -12 6 10 9 21 6 23 -2 3 -7 -2 -11 -11z"/>
<path d="M8020 3940 c0 -8 5 -22 10 -30 9 -13 10 -13 10 0 0 8 -5 22 -10 30
-9 13 -10 13 -10 0z"/>
<path d="M3575 3909 c-4 -6 -5 -12 -2 -15 2 -3 7 2 10 11 7 17 1 20 -8 4z"/>
<path d="M4976 3894 c-3 -9 -4 -19 -1 -22 3 -3 5 1 5 9 0 11 2 11 10 -1 5 -8
10 -10 10 -5 0 6 -4 16 -9 23 -6 11 -10 10 -15 -4z"/>
<path d="M3385 3890 c-8 -12 21 -60 35 -60 6 0 1 9 -11 21 -11 11 -18 27 -15
35 6 16 0 19 -9 4z"/>
<path d="M5461 3884 c0 -11 3 -14 6 -6 3 7 2 16 -1 19 -3 4 -6 -2 -5 -13z"/>
<path d="M4856 3853 c-6 -14 -5 -15 5 -6 7 7 10 15 7 18 -3 3 -9 -2 -12 -12z"/>
<path d="M3387 3809 c7 -7 15 -10 18 -7 3 3 -2 9 -12 12 -14 6 -15 5 -6 -5z"/>
<path d="M3460 3774 c0 -5 7 -18 15 -28 12 -16 15 -17 15 -4 0 8 -7 21 -15 28
-8 7 -15 9 -15 4z"/>
<path d="M3725 3770 c3 -5 8 -10 11 -10 2 0 4 5 4 10 0 6 -5 10 -11 10 -5 0
-7 -4 -4 -10z"/>
<path d="M4701 3770 c0 -8 4 -22 9 -30 12 -18 12 -2 0 25 -6 13 -9 15 -9 5z"/>
<path d="M3440 3755 c0 -5 5 -17 10 -25 5 -8 10 -10 10 -5 0 6 -5 17 -10 25
-5 8 -10 11 -10 5z"/>
<path d="M3711 3733 c7 -12 15 -20 18 -17 3 2 -3 12 -13 22 -17 16 -18 16 -5
-5z"/>
<path d="M4807 3730 c-3 -11 -2 -22 2 -24 4 -3 8 6 9 20 2 29 -4 31 -11 4z"/>
<path d="M4941 3734 c0 -11 3 -14 6 -6 3 7 2 16 -1 19 -3 4 -6 -2 -5 -13z"/>
<path d="M3749 3714 c-1 -5 -1 -13 0 -18 1 -4 -4 -14 -10 -22 -8 -10 -8 -14 0
-14 12 0 27 48 17 57 -3 4 -7 2 -7 -3z"/>
<path d="M4932 3685 c0 -16 2 -22 5 -12 2 9 2 23 0 30 -3 6 -5 -1 -5 -18z"/>
<path d="M8136 3695 c-9 -26 -7 -32 5 -12 6 10 9 21 6 23 -2 3 -7 -2 -11 -11z"/>
<path d="M4951 3684 c0 -11 3 -14 6 -6 3 7 2 16 -1 19 -3 4 -6 -2 -5 -13z"/>
<path d="M7621 3695 c0 -5 6 -19 14 -29 8 -11 15 -15 15 -10 0 6 -7 19 -15 30
-8 10 -14 15 -14 9z"/>
<path d="M4766 3663 c10 -40 14 -41 14 -5 0 18 -5 32 -10 32 -6 0 -8 -11 -4
-27z"/>
<path d="M4491 3664 c0 -11 3 -14 6 -6 3 7 2 16 -1 19 -3 4 -6 -2 -5 -13z"/>
<path d="M4531 3654 c0 -11 3 -14 6 -6 3 7 2 16 -1 19 -3 4 -6 -2 -5 -13z"/>
<path d="M3440 3651 c0 -6 4 -13 10 -16 6 -3 7 1 4 9 -7 18 -14 21 -14 7z"/>
<path d="M8146 3625 c-3 -9 -6 -22 -5 -28 0 -7 5 -1 10 12 5 13 8 26 5 28 -2
2 -6 -3 -10 -12z"/>
<path d="M2146 3617 c3 -10 9 -15 12 -12 3 3 0 11 -7 18 -10 9 -11 8 -5 -6z"/>
<path d="M3405 3619 c-4 -6 -5 -12 -2 -15 2 -3 7 2 10 11 7 17 1 20 -8 4z"/>
<path d="M3770 3618 c0 -6 6 -8 14 -5 7 3 19 0 26 -6 10 -9 11 -9 8 3 -5 16
-48 23 -48 8z"/>
<path d="M6620 3621 c0 -5 5 -13 10 -16 6 -3 10 -2 10 4 0 5 -4 13 -10 16 -5
3 -10 2 -10 -4z"/>
<path d="M7390 3611 c0 -25 6 -27 13 -6 4 8 2 17 -3 20 -6 4 -10 -3 -10 -14z"/>
<path d="M7371 3604 c0 -11 3 -14 6 -6 3 7 2 16 -1 19 -3 4 -6 -2 -5 -13z"/>
<path d="M7600 3596 c0 -8 4 -17 9 -20 5 -4 7 3 4 14 -6 23 -13 26 -13 6z"/>
<path d="M3370 3591 c0 -5 7 -11 14 -14 10 -4 13 -1 9 9 -6 15 -23 19 -23 5z"/>
<path d="M3505 3589 c-4 -6 -5 -12 -2 -15 2 -3 7 2 10 11 7 17 1 20 -8 4z"/>
<path d="M3600 3565 c0 -5 5 -17 10 -25 5 -8 10 -10 10 -5 0 6 -5 17 -10 25
-5 8 -10 11 -10 5z"/>
<path d="M3369 3558 c0 -2 -2 -14 -3 -27 -3 -22 -2 -23 11 -6 16 22 17 35 3
35 -5 0 -10 -1 -11 -2z"/>
<path d="M2426 3535 c-9 -26 -7 -32 5 -12 6 10 9 21 6 23 -2 3 -7 -2 -11 -11z"/>
<path d="M6486 3541 c-8 -13 11 -61 24 -61 11 0 45 48 38 55 -3 3 -11 -6 -18
-20 -7 -14 -17 -25 -22 -25 -12 0 -10 14 5 29 10 10 8 11 -7 5 -16 -6 -18 -4
-13 9 7 18 2 23 -7 8z"/>
<path d="M3467 3521 c-4 -17 -3 -21 5 -13 5 5 8 16 6 23 -3 8 -7 3 -11 -10z"/>
<path d="M4571 3504 c0 -11 3 -14 6 -6 3 7 2 16 -1 19 -3 4 -6 -2 -5 -13z"/>
<path d="M7320 3509 c0 -5 5 -7 10 -4 6 3 10 8 10 11 0 2 -4 4 -10 4 -5 0 -10
-5 -10 -11z"/>
<path d="M2252 3480 c0 -14 2 -19 5 -12 2 6 2 18 0 25 -3 6 -5 1 -5 -13z"/>
<path d="M2951 3474 c0 -11 3 -14 6 -6 3 7 2 16 -1 19 -3 4 -6 -2 -5 -13z"/>
<path d="M4587 3483 c-4 -3 -7 -18 -6 -32 1 -26 1 -25 10 3 9 31 7 41 -4 29z"/>
<path d="M8210 3481 c0 -10 19 -25 25 -20 1 2 -3 10 -11 17 -8 7 -14 8 -14 3z"/>
<path d="M1460 3455 c0 -8 5 -15 10 -15 6 0 10 7 10 15 0 8 -4 15 -10 15 -5 0
-10 -7 -10 -15z"/>
<path d="M3895 3460 c-3 -5 -1 -10 4 -10 6 0 11 5 11 10 0 6 -2 10 -4 10 -3 0
-8 -4 -11 -10z"/>
<path d="M7284 3448 l-19 -23 23 19 c21 18 27 26 19 26 -2 0 -12 -10 -23 -22z"/>
<path d="M1444 3435 c4 -16 12 -34 17 -40 5 -5 4 6 -2 25 -15 45 -24 54 -15
15z"/>
<path d="M2132 3420 c0 -19 2 -27 5 -17 2 9 2 25 0 35 -3 9 -5 1 -5 -18z"/>
<path d="M2258 3433 c-3 -10 1 -24 9 -32 12 -10 13 -8 7 16 -9 36 -10 38 -16
16z"/>
<path d="M6631 3434 c0 -11 3 -14 6 -6 3 7 2 16 -1 19 -3 4 -6 -2 -5 -13z"/>
<path d="M2912 3428 c-15 -15 -15 -25 1 -31 7 -3 13 5 13 19 2 28 2 28 -14 12z"/>
<path d="M2520 3410 c0 -5 5 -10 11 -10 5 0 7 5 4 10 -3 6 -8 10 -11 10 -2 0
-4 -4 -4 -10z"/>
<path d="M5452 3400 c0 -14 2 -19 5 -12 2 6 2 18 0 25 -3 6 -5 1 -5 -13z"/>
<path d="M5478 3397 c-3 -19 -2 -25 4 -19 6 6 8 18 6 28 -3 14 -5 12 -10 -9z"/>
<path d="M6610 3384 c0 -8 5 -12 10 -9 6 4 8 11 5 16 -9 14 -15 11 -15 -7z"/>
<path d="M8024 3392 c3 -5 0 -12 -6 -15 -7 -2 -10 -7 -7 -11 3 -4 12 0 18 8 9
11 9 16 0 22 -7 4 -9 3 -5 -4z"/>
<path d="M3225 3380 c-3 -5 -2 -10 4 -10 5 0 13 5 16 10 3 6 2 10 -4 10 -5 0
-13 -4 -16 -10z"/>
<path d="M3418 3378 c5 -5 16 -8 23 -6 8 3 3 7 -10 11 -17 4 -21 3 -13 -5z"/>
<path d="M3465 3380 c3 -5 11 -10 16 -10 6 0 7 5 4 10 -3 6 -11 10 -16 10 -6
0 -7 -4 -4 -10z"/>
<path d="M4043 3375 c0 -8 4 -15 9 -15 4 0 8 7 8 15 0 8 -4 15 -8 15 -5 0 -9
-7 -9 -15z"/>
<path d="M2112 3355 c0 -16 2 -22 5 -12 2 9 2 23 0 30 -3 6 -5 -1 -5 -18z"/>
<path d="M1320 3360 c-9 -6 -10 -10 -3 -10 6 0 15 5 18 10 8 12 4 12 -15 0z"/>
<path d="M2141 3354 c0 -11 3 -14 6 -6 3 7 2 16 -1 19 -3 4 -6 -2 -5 -13z"/>
<path d="M2320 3361 c0 -6 5 -11 12 -11 6 0 19 -7 29 -16 10 -9 23 -14 29 -12
6 2 -7 14 -29 26 -23 13 -41 18 -41 13z"/>
<path d="M3148 3363 c7 -3 16 -2 19 1 4 3 -2 6 -13 5 -11 0 -14 -3 -6 -6z"/>
<path d="M5868 3363 c7 -3 16 -2 19 1 4 3 -2 6 -13 5 -11 0 -14 -3 -6 -6z"/>
<path d="M6678 3363 c7 -3 16 -2 19 1 4 3 -2 6 -13 5 -11 0 -14 -3 -6 -6z"/>
<path d="M7958 3363 c7 -3 16 -2 19 1 4 3 -2 6 -13 5 -11 0 -14 -3 -6 -6z"/>
<path d="M5389 3343 c-13 -16 -12 -17 4 -4 9 7 17 15 17 17 0 8 -8 3 -21 -13z"/>
<path d="M2841 3336 l-24 -13 30 1 c16 0 30 7 30 14 0 15 -6 15 -36 -2z"/>
<path d="M2125 3320 c-3 -5 -1 -10 4 -10 6 0 11 5 11 10 0 6 -2 10 -4 10 -3 0
-8 -4 -11 -10z"/>
<path d="M4647 3313 c-10 -9 -9 -23 1 -23 5 0 9 7 9 15 0 17 -1 18 -10 8z"/>
<path d="M4775 3310 c3 -6 -4 -14 -17 -19 -14 -6 -17 -10 -7 -10 16 -1 39 17
39 31 0 4 -5 8 -11 8 -5 0 -7 -5 -4 -10z"/>
<path d="M4688 3273 c6 -2 18 -2 25 0 6 3 1 5 -13 5 -14 0 -19 -2 -12 -5z"/>
<path d="M4708 3253 c6 -2 18 -2 25 0 6 3 1 5 -13 5 -14 0 -19 -2 -12 -5z"/>
<path d="M4738 3233 c6 -2 18 -2 25 0 6 3 1 5 -13 5 -14 0 -19 -2 -12 -5z"/>
</g>
</svg>
